<svg xmlns="http://www.w3.org/2000/svg"><symbol id="icon-envelope" viewBox="0 0 1792 1792"><path d="M1792 710v794q0 66-47 113t-113 47H160q-66 0-113-47T0 1504V710q44 49 101 87 362 246 497 345 57 42 92.5 65.5t94.5 48 110 24.5h2q51 0 110-24.5t94.5-48 92.5-65.5q170-123 498-345 57-39 100-87zm0-294q0 79-49 151t-122 123q-376 261-468 325-10 7-42.5 30.5t-54 38-52 32.5-57.5 27-50 9h-2q-23 0-50-9t-57.5-27-52-32.5-54-38T639 1015q-91-64-262-182.5T172 690q-62-42-117-115.5T0 438q0-78 41.5-130T160 256h1472q65 0 112.5 47t47.5 113z" fill="#fff"/></symbol><symbol id="icon-home" viewBox="0 0 1792 1792"><path d="M1472 992v480q0 26-19 45t-45 19h-384v-384H768v384H384q-26 0-45-19t-19-45V992q0-1 .5-3t.5-3l575-474 575 474q1 2 1 6zm223-69l-62 74q-8 9-21 11h-3q-13 0-21-7L896 424l-692 577q-12 8-24 7-13-2-21-11l-62-74q-8-10-7-23.5t11-21.5l719-599q32-26 76-26t76 26l244 204V288q0-14 9-23t23-9h192q14 0 23 9t9 23v408l219 182q10 8 11 21.5t-7 23.5z" fill="#fff"/></symbol><symbol id="icon-logo" viewBox="0 0 403 158"><title>UPEI_Logo_white</title><g fill="#FFF" fill-rule="evenodd"><path d="M118.051 24.646c-.015.063-.051.143-.083.215-.001.003-.006 0-.008.003-.001.003-.238.303-.517.164a2.7 2.7 0 0 1-.251-.148 2.399 2.399 0 0 0-.439-.312c-.168-.116-.35-.229-.537-.273a.89.89 0 0 0-.25-.06.193.193 0 0 0-.191.171c-.014.184.184.215.328.237l.001-.002c.072.028.161.068.26.124l.359.228c.079.058.16.116.242.173.145.138.263.316.369.556.049.11.073.215.099.318.006.06.017.119.017.181 0 .466.054 1.113-.27 1.47-.075.085-.107.093-.159.201-.078.157-.15.302-.26.439-.154.19-.323.342-.509.503-.273.233-.505.426-.831.49-.216.043-.425.05-.637.059-.313-.176-.357-.401-.425-.83a7.2 7.2 0 0 0-.043-.265c-.122-.687-.274-.687-.355-.687a.194.194 0 0 0-.152.079c-.044.06-.088.122.085.64.179.529-.084 1.421-.195 1.75-.223.294-.476.567-.731.842-.384.245-.733.497-1.168.633-.235.074-.469.191-.711.256-.191.045-.389.082-.512.248-.089.125-.307.174-.204.51 0 .08.286.254.288.334.014.412-.925.08-1.116 0-.191-.076-.306-.091-.503-.167a3.243 3.243 0 0 1-.724-.382c-.172-.127-.309-.344-.451-.502a3.203 3.203 0 0 0-.29-.276c-.431-.51-.94-1.184-1.235-1.821-.596-1.277-.46-2.386-.307-2.522.297-.259.434-.812.448-.875a.182.182 0 0 0-.081-.196.184.184 0 0 0-.212.013c-.026.022-.664.549-.788 1.077-.097.411-.211.554-.198.571-.266-.113-.614-1.215-.614-1.563 0-.085-.018-.237-.041-.427-.065-.544-.175-1.454.047-1.891.418-.829 1.143-1.435 1.538-1.722.203-.148.4-.325.336-.524-.03-.091-.12-.199-.385-.199-.044 0-.074.003-.074.003a.196.196 0 0 0-.097.038c-.444.352-.942.73-1.187.895-.091-.3-.226-.919-.155-1.182.258-.933.235-.963.174-1.044a.187.187 0 0 0-.147-.073c-.093 0-.232 0-.48 1.034-.171.708-.172 1.809-.172 1.848-.02.518-.122 1.434-.301 1.686-.225.312-.112 1.03.047 1.867.044.229.085.446.085.524-.027.326-1.5 3.384-1.766 3.846a.805.805 0 0 0-.099.234l-1.627-.375c-.666.336-1.496.858-2.048 1.571a3.432 3.432 0 0 0-1.285.094c.024-.178.055-.35.129-.541.089-.229.121-.458.189-.69.052-.189.095-.371.182-.542.126-.243.414-.453.525-.709.114-.266-.022-.6.092-.867l.811-1.877c.117-.268.239-.513.325-.793.085-.273.2-.536.336-.789.119-.223.309-.396.44-.611.104-.169.243-.434.306-.624.032-.096.025-.222.054-.323a1.92 1.92 0 0 1 .191-.408c.331-.559.906-.901 1.277-1.423.117-.162.193-.356.33-.501.068-.075.158-.102.231-.164.075-.066.091-.155.15-.244.117-.171.163-.355.209-.555.068-.284.231-.493.363-.722.184-.334.41-.622.726-.847.164-.117.312-.271.503-.342.21-.079.353-.219.553-.336.18-.103.331-.247.496-.365.16-.115.364-.167.564-.213.38-.088.773-.078 1.157-.127.113-.015.21-.069.327-.08.115-.011.238 0 .352 0 .458 0 .903.008 1.352.058.414.048.873.172 1.211.41.174.119.316.271.535.343.17.056.339.169.499.253.153.08.204.191.295.349.082.134.206.238.323.351a.72.72 0 0 1 .039.042c.354.685.95 1.993.87 2.887-.111 1.246-.782 3.144-1.118 3.517-.335.375-.493.791.391.224 1.006-.646 1.898-3.629 1.898-4.075 0-.292.245-.503.534-.636.051.011.1.024.188.018.503-.031 1.048.003 1.483.288.347.223.73.396 1.039.657.377.323.762 1.025.794 1.523a2.17 2.17 0 0 1-.053.677zm-15.738 6.61a5.73 5.73 0 0 0 .4-.524l.049-.071c1.247-1.783 1.671-2.05 1.813-2.05.367 0 .663.59.713.894.044.273.233.428.4.565.096.078.186.152.239.239l.034.058c.168.272.514.834.484 1.209-.004.064-.004.064-.242.297-.17.158-.223.223-.347.387-.175.232-.47.564-.548.829-.13.312-.346.637-.564.911a4.04 4.04 0 0 0-.68-.273 5.186 5.186 0 0 0-.941-2.284l-.81-.187zm1.339 15.039h-.906c-1.532-1.27-5.284-2.545-10.634-2.545-5.349 0-9.009 1.275-10.541 2.545h-.881l-4.912-9.47 1.834-.83.296 2.191 1.123-1.658 1.422 2.986-1.952-.027s1.064 1.895 3.608 1.539c.804-.111 1.353-.462 1.753-.88-.073.028-.769.262-1.219-.243-.473-.533.236-1.125.236-1.125s.061.414.55.473c.486.058.514-.661.514-.661s-.355-.12-.412-.404c-.044-.208.36-.522.36-.522s-.598-1.387-1.485-1.017c-.904.377-.06 1.301-.06 1.301s-1.182-.176-1.692-.649c-.512-.474-.379-1.541.864-1.777 1.242-.236 2.13.711 2.13.711s-.533-1.006-.65-1.953c-.119-.947.533-1.776.533-1.776s1.123.592 1.362 1.126c.236.531.175 2.365.175 2.365s.982-1.39 1.599-1.598c.355-.117 1.244-.057 1.361.889.118.947-.946 1.717-.946 1.717s.043-.532-.237-.889c-.281-.356-.71-.119-1.007.249-.276.343-.295.876-.295.876s.413.355.413.533c0 .176-.175.533-.175.533s.235.473.65.356c.414-.119.236-.949.236-.949s.476.357.77.593c.296.237.06.746-.355 1.065-.12.091-.302.178-.494.258a4.82 4.82 0 0 0 1.618.156c1.542-.089 2.399-.727 2.872-1.342l.562-1.765-1.895 1.271-.295-3.787 2.307 1.48-.889-2.486h3.196l-1.124 2.547 2.309-1.362-.353 3.729-1.838-1.392.505 1.877c.433.567 1.098 1.154 2.1 1.349.708.137 1.401-.011 2.024-.252-.017-.013-.035-.021-.045-.03-.411-.325-.638-.841-.336-1.072.298-.231.778-.58.778-.58s-.191.827.221.953c.412.127.656-.345.656-.345s-.171-.357-.168-.534c.004-.178.425-.525.425-.525s-.011-.537-.282-.882c-.29-.371-.713-.615-1.001-.266-.288.35-.252.884-.252.884s-1.053-.789-.917-1.734c.134-.943 1.023-.988 1.375-.862.615.217 1.571 1.625 1.571 1.625s-.028-1.836.219-2.364c.245-.528 1.38-1.1 1.38-1.1s.637.84.502 1.784c-.135.946-.684 1.943-.684 1.943s.901-.933 2.142-.674c1.237.258 1.352 1.324.833 1.79-.517.466-1.705.622-1.705.622s.863-.91-.037-1.305c-.88-.386-1.498.994-1.498.994s.395.318.348.526c-.064.285-.423.396-.423.396s.018.722.509.672c.486-.052.555-.466.555-.466s.7.605.216 1.129c-.359.393-.881.319-1.12.256.327.436.727.825 1.223 1.015 2.061.788 3.789-1.243 3.789-1.243l-2.012-.282 1.775-3.032 1.066 2.129.295-2.426 1.773 1.361-5.206 8.287zm-.086 12.996c-.117.031-.259-.038-.342-.113-.237-.213-.377-.537-.592-.778-.153-.173-.262-.442-.338-.663-.054-.151-.192-.681-.405-.588.024-.229-.249-.553-.345-.752-.114-.231-.156-.464-.249-.7-.082-.219-.277-.297-.488-.425-.372-.227-.703-.524-1.027-.823-.465-.432-.8-.924-1.19-1.413-.15-.191-.195-.313-.252-.544-.05-.197-.214-.35-.249-.54-.037-.206.032-.446.017-.659-.014-.265-.17-.418-.305-.633-.199-.323-.281-.695-.377-1.049-.078-.295-.068-.618-.171-.906-.111-.299-.332-.559-.476-.837-.107-.207-.169-.418-.274-.621-.073-.145-.117-.526-.177-.899 2.727.435 4.382 1.213 4.968 1.699l.376.135c.049.264.113.526.167.772.115.527.275 1.052.368 1.59.061.338.176.679.243 1.017.026.133.048.321.07.482.032.236.131.46.16.698.028.249.009.507 0 .755-.018.374-.152.719-.28 1.065-.091.252-.346.458-.268.741.064.226.199.491.296.711.007.011 1.055 2.368 1.055 2.368.061.206.142.414.183.624.026.152.067.245-.098.286zm-8.223-12.223c-.075.142-.072.447-.093.606-.139.968-.08 2.139-.594 3.012.024-.034.034-.021.054-.034-.034.088.004.249-.004.366-.009.186-.03.37-.041.552-.016.284-.005.572-.005.856 0 .295.02.594.002.885a2.151 2.151 0 0 1-.064.37c-.081.348-.209.679-.324 1.019-.097.302-.218.581-.448.81-.187.19-.41.332-.627.482-.173.119-.44.232-.567.399-.243.323-.224.96-.284 1.364-.128.888-.061 1.811-.072 2.712-.003.218-.188 1.744-.594 1.18-.278-.38-.241-.91-.212-1.35.028-.492.036-.975.056-1.465.02-.477.02-.967-.063-1.433-.028-.171-.013-.451-.117-.583-.036-.048-.193-.142-.251-.191a3.52 3.52 0 0 1-.365-.358c-.142-.16-.332-.268-.451-.455-.288-.44-.325-1.01-.437-1.509-.119-.517-.085-1.043-.085-1.567 0-1.06.126-2.102-.004-3.151-.065-.529-.034-1.078-.082-1.611a22.063 22.063 0 0 0-.255-1.811 27.253 27.253 0 0 1 2.696-.138c1.261 0 2.381.078 3.384.2-.067.378-.119.778-.153.843zm-7.294-.052c-.143.222-.187.521-.276.77-.082.238-.224.451-.306.691-.194.583-.334 1.189-.523 1.771-.074.228-.117.454-.163.681-.071.353-.227.685-.362 1.025a7.933 7.933 0 0 1-.633 1.219c-.182.294-.431.55-.602.851-.212.366-.514.698-.902.885-.31.146-.661.249-.952.425-.249.149-.381.379-.519.617-.171.291-.416.565-.539.899-.084.226-.138.445-.283.642-.135.184-.33.334-.416.54-.089.219-.204.351-.353.528-.146.17-.224.391-.503.341-.455-.083-.18-.466-.05-.685.171-.277.34-.555.509-.834.208-.343.419-.69.625-1.033.099-.216.214-.428.277-.658.215-.753-.234-1.686-.382-2.397-.11-.532-.13-1.038.048-1.543.1-.278.226-.536.292-.827.17-.785.437-1.553.632-2.31.04-.154.06-.314.087-.471l.268-.097c.613-.508 2.37-1.338 5.291-1.758-.113.33-.211.642-.265.728zm-5.813-16.024l-.493.105a5.182 5.182 0 0 0-.981 2.267 3.97 3.97 0 0 0-.674.247c-.032-.138-.06-.297-.142-.397-.115-.137-.26-.247-.368-.388-.18-.227-.323-.472-.502-.694-.105-.278-.199-.593-.199-.856 0-.264.636-1.475.997-1.958.045-.06.09-.123.136-.187.263-.37.504-.703.87-.56.538.201 1.019 1.481 1.356 2.421zm-6.683.673a1.066 1.066 0 0 0-.306-.46c-.18-.163-.435-.213-.659-.291-.276-.097-.555-.195-.825-.306-.231-.095-.423-.253-.642-.375-.126-.071-.267-.148-.38-.237-.245-.188-.343-.531-.567-.711-.391-.307-.969-.204-1.422-.373-.338-.13-.636-.311-.963-.486-.21-.109-.485-.177-.654-.332-.731-.671-.944-1.682-1.052-2.621-.025-.238-.025-.491-.145-.715-.061-.119-.129-.168-.158-.3-.061-.286-.223-.577-.223-.876 0-.174-.004-.34.043-.508.127-.472.286-1.079.611-1.452.327-.377.64-.722 1.098-.941.281-.134.583-.242.885-.325.398-.108.791-.264 1.195-.348a1.33 1.33 0 0 1 .256-.027c.13.002.226-.057.33-.113-.276.829-.553 2.129-.064 3.143.782 1.622.789 1.292 1.234 1.845a5.67 5.67 0 0 1 .721 1.184s.167-.332-.054-.774c-.429-.85-1.064-2.361-1.064-3.874 0-1.086.256-2.038.957-2.834.294-.214.601-.409.865-.657.302-.284.534-.605.972-.673.31-.05.608-.175.917-.229.236-.043.472-.045.713-.045.192 0 .384-.002.574 0 .295.004.596.078.887.128.307.051.619.11.912.225.16.065.312.127.485.166.462.107.824.421 1.219.69.104.071.178.126.264.208a1.7 1.7 0 0 0 .291.25c.149.094.312.14.448.253.284.245.597.527.722.882.102.287.18.607.355.87.064.101.131.247.224.309.063.041.124.03.195.059.189.073.232.286.292.451.042.125.07.21.078.342.022.264.072.469.233.68.175.228.342.48.396.768.064.338.152.702.302 1.015.197.414.452.758.652 1.159.109.215.086.448.156.672.069.215.236.201.356.357.075.102.105.25.157.368.08.183.17.363.226.558.074.269.154.529.227.796.098.35.209.69.209 1.055 0 .191-.063.47.054.625.05.069.1.092.137.168.064.125.064.273.132.397.147.279.268.587.39.887.075.183.173.364.156.567-.008.119-.044.187-.088.277-.007.015-.022.039-.031.057a3.435 3.435 0 0 0-1.172-.096c-.541-.722-1.359-1.258-2.017-1.605l-1.46.31c-.143-.53-.325-1.045-.455-1.305-.381-.762-.758-2.419-.758-2.744 0-.088.015-.311.033-.603.081-1.273.149-2.553.015-2.971-.192-.597-1.484-1.546-1.63-1.654a.183.183 0 0 0-.237.276c.003.002.219.229.639 1.016.304.569.275 1.077.235 1.78-.015.265-.033.552-.033.872 0 .817-.502 1.712-.761 2.123a2.33 2.33 0 0 1-.218-.648 2.856 2.856 0 0 0-.421-1.077.182.182 0 0 0-.321.162c.002.007.206.67-.008 2.377-.21 1.68-2.353 3.095-2.375 3.108-.022.014-.02.043-.034.065-.084.046-.173.089-.247.144-.135.097-.203.225-.356.288-.133.058-.39.088-.514-.011-.091-.077-.1-.228-.134-.335zm8.906-19.927c.1-.443.459-.69.487-1.09.013-.192.039-.245.033-.423a1.615 1.615 0 0 1 .156-.704c.1-.171.268-.31.386-.466.173-.219.353-.334.557-.506.164-.14.34-.272.531-.374.372-.193.804-.26 1.201-.385.506-.158 2.219-.073 2.72.249l1.322.856c.229.364.719 1.254.719 2.281 0 .872.267 2.481.455 3.497.098.542.366.23.366.23s.296-2.499.35-3.951c.053-1.328.106-1.538.415-1.948l2.206-1c.139-.065.271-.141.416-.159.372-.047.776-.119 1.149-.095.21.009.425.02.629.046.192.024.343.08.533.14.342.115.69.272.992.487.24.172.522.275.746.471.191.168.269.415.377.643l.53 1.145s.435 1.434.435 2.646c0 .594-1.025 2.576-1.025 2.576l-1.958 2.378s-.029.711-.159.897c-.155.217-.985.672-.985.818 0 .389.852.132.852.132s-.31 2.219-.393 2.599a3.548 3.548 0 0 1-.169.494c-.024.07-.054.141-.085.208a6.422 6.422 0 0 1-.116.276 29.4 29.4 0 0 1-.197.437l-1.1 4.784c-.244 1.208-.442 2.434-.734 3.632-.021.085-.033.179-.051.267a3.17 3.17 0 0 0-.488.352l-1.498-2.298h-3.196l-1.518 2.155a3.074 3.074 0 0 0-.485-.383c-.025-.222-.081-.454-.097-.644-.022-.247-.095-.469-.161-.712a3.857 3.857 0 0 1-.11-.919 4.844 4.844 0 0 0-.063-.859 6.634 6.634 0 0 1-.115-1.132c-.003-.337-.01-.702-.078-1.017-.085-.365-.179-.729-.256-1.095-.046-.206-.11-.417-.128-.629-.034-.344-.195-.677-.195-1.031l-.093-.607c-.039-.274-.106-.18-.074-.458-.205-.518 1.39.412 1.67.187.054-.277-1.396-1.059-1.531-1.203-.05-.189-.116-.277-.214-.427-.115-.168-.174-.419-.228-.612-.149-.561-.355-1.131-.435-1.718-.051-.373-.087-.751-.148-1.123-.044-.299-.075-.6-.118-.9.525.305 1.15.684 1.457.887.479.32 1.466 1.36 1.476 1.37a.18.18 0 0 0 .2.043.18.18 0 0 0 .114-.169c0-.001.001-.274.039-.641 0 0 .02-.014.08-.014.273 0 .938.285 1.568 1.051.41.497.457 1.174.508 1.889.035.494.071 1.005.241 1.448.111.29.163 1.075.21 1.768.094 1.396.139 1.837.45 1.837a.246.246 0 0 0 .181-.08c.374-.384.335-3.57.298-4.984.091-.152.397-.66.584-.944.426-.659 1.499-1.163 2.655-1.663 1.187-.517 1.732-1.729 1.857-2.045.193-.088.75-.344 1.16-.526.537-.238 1.383-1.617 1.477-1.773a.181.181 0 0 0-.056-.246.18.18 0 0 0-.248.047c-.303.427-.672.823-.768.847-.145-.028-.383-.243-.507-.388a.184.184 0 0 0-.241-.032.183.183 0 0 0-.058.238c.003.004.256.479-.062.716a.826.826 0 0 1-.66.158c-.897-1.614-.907-1.614-1.045-1.614a.187.187 0 0 0-.153.083c-.058.089-.02.173.016.253l.033.076c.234.527.671 1.505.034 2.487-.268.414-1.176.904-2.555 1.38-.669.228-1.259.788-1.651 1.157a5.416 5.416 0 0 1-.285.259 4.03 4.03 0 0 1-.267-.393c-.157-.25-.335-.533-.541-.754-.304-.326-.611-.414-1.223-.589-.33-.094-.741-.212-1.305-.408-.949-.327-1.092-1.362-1.161-1.859-.035-.25-.06-.431-.251-.431-.152 0-.216.149-.267.27-.25.583-.136 1.033-.03 1.273a1.17 1.17 0 0 1-.161-.076 131.2 131.2 0 0 1-1.777-1.046c-.925-.964-1.508-2.196-1.508-3.535 0-.473.014-.897.11-1.342zm-36.836 8.285h-2.994s-1.109 0-1.109 1.11v13.353a33.361 33.361 0 0 0-3.327-.682V21.126s0-1.11-1.108-1.11h-4.879v-.912s0-.909.759-1.719l2.695-2.873s.759-.808 1.867-.808h6.986s1.11 0 1.11 1.106v5.213zM46.551 45.38s-2.994-2.874-19.008-2.874c-16.013 0-18.906 2.874-18.906 2.874l-.283-7.003s3.159-2.826 19.189-2.826c16.032 0 19.284 2.826 19.284 2.826l-.276 7.003zm-3.032 7.931s.056 2.109-1.719 2.109c-1.774 0-1.607-2.109-1.607-2.109v-7.44c1.439.244 2.523.51 3.326.752v6.688zM32.523 58.97c.112.665.28 1.843-.441 1.957-.722.116-1.221-.515-1.388-.904-.165-.388-.72-1.552-.942-3.326-.101-.803.378-8.87.378-9.481 0-.208.047-1.079.11-2.174.975.022 1.887.056 2.748.099-.319 2.535-1.017 9.209-1.017 10.557 0 1.497.487 2.873.552 3.272zm-6.814-2.273c-.222 1.774-.776 2.938-.942 3.326-.166.389-.666 1.02-1.387.904-.721-.114-.554-1.292-.442-1.957.065-.399.553-1.775.553-3.272 0-1.353-.704-8.067-1.021-10.582.86-.038 1.779-.065 2.75-.084.063 1.1.11 1.975.11 2.184 0 .611.48 8.678.379 9.481zM13.287 55.42c-1.774 0-1.719-2.109-1.719-2.109v-6.702c.806-.245 1.892-.509 3.326-.752v7.454s.167 2.109-1.607 2.109zM7.465 14.81c0-1.106 1.109-1.106 1.109-1.106h6.987c1.108 0 1.867.808 1.867.808l2.695 2.873c.759.81.759 1.719.759 1.719v.912h-4.88c-1.108 0-1.108 1.11-1.108 1.11V33.79a33.632 33.632 0 0 0-3.328.678V21.133c0-1.11-1.107-1.11-1.107-1.11H7.465V14.81zm16.078-6.234c2.326-.932 3.675-.349 4.188-.018.511-.331 1.861-.914 4.186.018 2.394.958 3.517 2.603 3.128 4.654-.28 1.488-2.687 4.218-4.294 5.93 1.807 1.383 4.76 3.528 4.823 4.383.165 2.273-.317 4.991-.499 6.375-.053.404-.225 1.668-.446 3.292a97.66 97.66 0 0 0-3.674-.168l.238-3.844s.111-2.051 0-2.772c-.111-.72-1.384-1.995-1.384-1.995s-.736-.752-1.569-1.607c.82-.599 1.934-1.5 2.067-2.088.342-1.507-.318-1.75-.394-1.773a.222.222 0 0 0-.234.067.22.22 0 0 0-.038.24l.033.064c.02.117.005.453-.062.679-.179.597-.537.997-1.459.981-.081 0-.31-.05-.433-.071a.25.25 0 0 0-.243.177c-.075.294.518.589.545.603.033.016.063.03.094.041l-.52.695-1.943 1.992s-1.274 1.275-1.385 1.995c-.112.721 0 2.772 0 2.772l.237 3.831c-1.324.031-2.548.082-3.677.15-.22-1.61-.389-2.859-.442-3.261-.182-1.384-.665-4.102-.499-6.375.062-.855 3.015-3 4.822-4.383-1.606-1.712-4.013-4.442-4.294-5.93-.388-2.051.735-3.696 3.128-4.654zM61.494.487H0v90.919c.298.905.597 1.784.896 2.655L61.494 53.02l60.601 41.041c.298-.871.596-1.75.895-2.655V.487H61.494z"/><path d="M27.199 16.168c-.84.674-1.803 1.549-1.915 2.112-.333 1.667 1.093 2.103 1.112 2.103l.166.088a.216.216 0 0 0 .108.029h.007c.1.003.228-.096.228-.22a.22.22 0 0 0-.081-.167c-.111-.172-.513-.856-.289-1.442.234-.61.85-.702 1.196-.702.375 0 .63.105.671.145.05.062.13.144.252.144a.264.264 0 0 0 .238-.19c.051-.241-.263-.766-.877-1.038-.138-.062-.328-.093-.582-.088l.377-.4c.979-.807 1.976-1.621 2.279-1.98.888-1.053 1.274-2.883.665-3.713-.491-.672-1.497-1.386-2.051-1.664-.225-.112-.688-.27-.972-.365-.286.095-.748.253-.973.365-.553.278-1.56.992-2.051 1.664-.61.83-.223 2.66.666 3.713.256.303 1.01.932 1.826 1.606M26.027 36.444l.666 1.727-1.725-.667v2.988l1.725-.667-.664 1.727h2.987l-.666-1.725 1.725.665v-2.988l-1.725.667.666-1.727h-2.989M62.829 88.328s0-.656.644-.785c0 0 3.252-1.971 9.819-1.971 6.567 0 12.006 3.002 12.006 3.002s.572.317.572.971v35.512s0 .656-.643.529c0 0-6.555-2.859-13.252-2.637-6.696.221-8.591 1.418-8.591 1.418s-.555.352-.555-.304V88.328zm24.638 39.465c.73-.398.73-1.06.73-1.06V91.688c.094.027.165.07.165.07l2.918 1.818c.562.352.562 1.014.562 1.014l-.003 37.586c0 .662-.601.943-.601.943l-2.57-.142s-3.272-3.912-15.851-3.912c-5.577 0-8.549 2.978-8.549 2.978h-5.545s-2.975-2.978-8.551-2.978c-12.579 0-15.851 3.912-15.851 3.912l-2.57.142s-.598-.281-.598-.943l-.006-37.586s0-.662.562-1.014l2.92-1.818s.072-.043.164-.07v35.045s0 .662.729 1.06c.73.397 1.48.133 1.48.133s9.259-4.109 15.887-2.852c5.312 1.01 7.819 2.231 8.607 2.674.786-.443 3.292-1.664 8.606-2.674 6.627-1.257 15.885 2.852 15.885 2.852s.752.264 1.48-.133zM37.119 89.545c0-.654.573-.971.573-.971s5.437-3.002 12.006-3.002c6.567 0 9.819 1.971 9.819 1.971.644.129.644.785.644.785v35.735c0 .656-.556.304-.556.304s-1.894-1.197-8.59-1.418c-6.698-.222-13.253 2.637-13.253 2.637-.643.127-.643-.529-.643-.529V89.545zM3.122 100.278C19.206 143.36 34.268 141.893 61.493 158c27.228-16.107 42.293-14.64 58.374-57.722L61.573 60.967 3.122 100.278zM167.072 14.337l.501.046c3.332.302 3.548.76 3.733 2.192.236 1.302.328 3.267.328 7.011v3.599c0 5.779-.964 12.412-8.476 12.412-5.687 0-8.571-3.636-8.571-10.807V18.557c0-4.009.254-4.021 3.366-4.173l.524-.026v-1.596h-12.581v1.57l.497.05c3.283.33 3.346.336 3.346 4.175v11.317c0 5.095 1.402 8.448 4.407 10.548 1.846 1.325 4.518 2.054 7.524 2.054 3.562 0 6.648-1.087 8.692-3.063 2.507-2.466 3.576-5.889 3.576-11.447V23.63c0-3.762.136-5.707.237-6.842.151-1.626.596-2.109 3.443-2.406l.494-.052v-1.568h-11.04v1.575M201.119 14.35l.515.033c3.277.213 3.762.695 3.954 2.503.165 1.43.235 3.485.235 6.874v10.518l-19.659-21.516h-7.327v1.577l.504.044c2.358.203 2.757.523 3.769 1.595.73.807.867 1.063.867 4.358v9.971c0 3.895-.168 5.933-.269 7.151l-.017.209c-.194 2.006-.788 2.455-3.529 2.669l-.509.04v1.58h11.236v-1.578l-.506-.041c-3.084-.254-3.619-.628-3.82-2.684-.191-1.559-.284-3.962-.284-7.346V19.809l20.118 22.483.165.184h1.565V23.804c0-3.792.091-5.598.19-6.976.157-1.847.672-2.236 3.24-2.445l.507-.042v-1.579h-10.945v1.588M212.885 14.348l.514.035c3.48.241 3.615.384 3.615 3.829v18.294c0 3.445-.135 3.588-3.615 3.83l-.514.036v1.584h13.157v-1.585l-.514-.035c-3.53-.242-3.667-.386-3.667-3.83V18.212c0-3.444.137-3.588 3.666-3.829l.515-.035v-1.586h-13.157v1.586M258.98 12.762h-10.993v1.558l.483.06c1.408.177 2.805.384 3.058.797.179.29-.058 1.061-.342 1.855-2.033 5.787-5.423 13.788-7.275 17.999-3.237-7.579-6.55-15.647-7.677-18.701-.169-.456-.377-1.088-.239-1.309.237-.385 1.87-.563 2.567-.64l.491-.054v-1.565H226.86v1.582l.51.039c2.547.194 2.929.358 4.43 3.998 3.082 7.326 6.45 15.583 9.741 23.876l.138.348h1.519l.137-.349c3.708-9.37 8.715-20.541 10.123-23.558 1.71-3.814 2.145-4.001 5.03-4.317l.492-.054v-1.565M281.401 34.691c-.682 1.649-1.42 3.001-2.062 3.787-.865.962-1.526 1.465-6.023 1.465-2.212 0-3.81 0-4.59-.556-.516-.349-.813-.946-.813-2.967v-8.424h4.299c4.007 0 4.08.402 4.548 3.016l.082.454h1.585v-8.951h-1.579l-.086.446c-.489 2.525-.553 2.85-4.647 2.85h-4.202V15.566c0-.156 0-.629.047-.714.043-.03.21-.079.841-.079h3.219c3.742 0 4.907.243 5.676 1.191.592.7 1.03 1.715 1.422 3.29l.126.507 1.679-.322-.048-.5c-.14-1.435-.333-4.189-.333-5.625v-.552h-21.319v1.57l.497.05c3.282.329 3.345.335 3.345 4.09v18.034c0 3.402-.151 3.545-4.052 3.83l-.512.037v1.583h22.857l.12-.389c.486-1.587 1.362-5.011 1.645-6.428l.108-.544-1.657-.32-.173.416M292.401 16.477c0-1.416.162-1.508.232-1.548.149-.076.954-.244 2.388-.244 3.895 0 6.22 2.372 6.22 6.344 0 2.392-.768 4.069-2.408 5.272-1.108.779-2.441 1.069-4.916 1.069h-1.516V16.477zm16.128 22.165c-1.231-1.305-2.553-2.893-4.041-4.852-1.321-1.748-3.07-4.246-4.015-5.814 3.961-1.709 6.049-4.341 6.049-7.64 0-2.561-1.132-4.682-3.186-5.973-1.794-1.137-4.078-1.601-7.882-1.601h-11.787v1.577l.504.044c3.256.279 3.383.29 3.383 3.654v18.469c0 3.445-.133 3.588-3.568 3.83l-.513.036v1.584h12.963v-1.583l-.513-.037c-3.358-.24-3.522-.418-3.522-3.83v-7.251h.651c2.232 0 2.819.52 3.631 1.717.565.796 1.154 1.668 1.761 2.564 1.055 1.558 2.144 3.17 3.246 4.608 2.214 2.875 4.33 3.903 8.348 4.069.414.047.863.047 1.259.047h.45l.297-1.442-.522-.123c-.957-.225-1.648-.589-2.993-2.053zM323.031 25.128l-.344-.171c-4.073-2.047-5.89-3.438-5.89-6.269 0-2.772 1.931-4.564 4.92-4.564 3.045 0 4.999 1.71 6.151 5.381l.15.477 1.629-.341-.199-1.222c-.33-2.017-.569-3.473-.698-4.855l-.037-.396-.386-.09c-.223-.052-.46-.113-.715-.178-1.221-.315-2.893-.745-5.22-.745-6.603 0-10.059 4.071-10.059 8.093 0 4.84 4.623 7.237 7.385 8.67l.687.359c3.537 1.878 5.854 3.324 5.854 6.19 0 3.082-2.051 4.997-5.352 4.997-5.884 0-7.511-6.119-7.677-6.817l-.141-.593-1.602.556.032.423c.083 1.09.792 5.851 1.209 6.703l.087.178.18.082c.549.25 1.339.526 2.59.902l.21.052c1.049.259 2.484.614 4.39.614 6.145 0 10.778-3.648 10.778-8.486 0-5.006-4.214-7.101-7.932-8.95M332.214 14.348l.514.035c3.481.241 3.616.384 3.616 3.829v18.294c0 3.445-.135 3.588-3.616 3.83l-.514.036v1.584h13.157v-1.585l-.514-.035c-3.529-.242-3.666-.386-3.666-3.83V18.212c0-3.444.137-3.588 3.665-3.829l.515-.035v-1.586h-13.157v1.586M391.709 12.762v1.571l.499.049c.854.083 2.632.257 2.842.637.15.271-.337 1.239-.495 1.554-1.263 2.478-3.911 6.95-5.651 9.845l-.519-.867c-1.814-3.032-3.87-6.468-5.728-9.824-.306-.532-.316-.682-.307-.72.038-.075.325-.344 2.4-.627l.477-.066v-1.552h-11.614a25.152 25.152 0 0 1-.007-.533v-.552h-1.334l-.164.189c-.607.694-.94.896-1.983.896h-18.97c-1.256 0-1.711-.111-2.114-.809l-.16-.276h-1.322l-.024.527c-.118 2.601-.327 5.288-.574 7.372l-.072.616h1.715l.108-.411c.45-1.702.862-2.822 1.344-3.646.512-.925 1.27-1.362 5.998-1.362h1.993v21.82c0 3.029-.107 3.538-3.896 3.743l-.523.027v1.593h13.83v-1.593l-.523-.028c-4.038-.208-4.038-.747-4.038-3.742v-21.82h2.714c4.109 0 4.824.43 5.375 1.321.359.647.837 1.645 1.342 3.64l.119.475 1.697-.221-.063-.541a76.81 76.81 0 0 1-.414-5.076l.273.013c2.495.116 2.616.313 4.646 3.597 2.372 3.815 4.269 7.013 5.804 9.782.735 1.288.839 1.672.839 2.414v6.286c0 3.486-.141 3.63-3.763 3.873l-.514.034v1.586h13.59v-1.587l-.517-.033c-3.802-.243-3.949-.388-3.949-3.873v-6.331c0-1.14.035-1.561.789-2.845 2.207-3.813 3.912-6.594 6.593-10.355l.143-.196c1.241-1.702 1.465-2.009 4.374-2.355l.486-.058v-1.561h-10.752M153.984 68.369c-.265.088-.476.118-.835.118-1.432 0-2.321-1.181-2.321-3.081 0-4.358 2.252-6.517 3.358-6.885.313-.121.596-.168 1.012-.168h.033c1.284 0 2.099 1.171 2.126 3.055.035 3.556-1.71 6.468-3.373 6.961zm6.471-7.1c0-2.68-1.665-4.345-4.38-4.345-.835 0-2.105.335-3.227.85-2.563 1.108-5.149 3.939-5.149 7.768 0 2.773 1.612 4.429 4.312 4.429 1.512 0 3.302-.642 4.916-1.764 2.143-1.532 3.528-4.255 3.528-6.938z"/><path d="M171.556 49.223c-1.405 0-3.375.953-4.785 2.312-1.284 1.174-2.208 3.047-2.901 5.881h-1.751l-1.157.761.13.669h2.464a1061.26 1061.26 0 0 0-1.068 5.155l-.764 3.719c-.82 3.979-1.522 6.206-2.15 6.811-.304.303-.808.506-1.255.506-.544 0-1.538-.282-1.956-.632-.264-.219-.55-.234-.887-.031-.473.283-.982.814-.982 1.309 0 .838 1.176 1.357 2.265 1.357 1.155 0 2.566-.637 3.777-1.705 2.178-1.949 3.022-3.647 4.104-8.256.85-3.45 1.205-5.217 1.794-8.147l.011-.054 2.973-.262 1.424-1.2h-4.067c.942-4.582 1.837-6.461 3.06-6.461.617 0 1.2.286 1.725.843.283.319.728.385 1.125.144.243-.154.874-.69.873-1.28.019-.242-.095-.509-.318-.751-.308-.332-.912-.688-1.684-.688M188.758 63.3c-1.052 0-2.012-.128-2.578-.267V54.25c0-1.035.09-1.533.336-1.691.123-.1.781-.306 2.027-.306 3.845 0 6.049 1.95 6.049 5.349 0 5.143-4.08 5.698-5.834 5.698zm7.461-10.915c-1.536-.961-3.919-1.449-7.084-1.449h-10.206v1.051l.321.022c2.827.198 2.937.316 2.937 3.146V70c0 2.769-.147 2.916-3.151 3.15l-.318.025v1.083h11.186v-1.085l-.32-.023c-3.245-.234-3.404-.378-3.404-3.078v-5.718l2.684.609c.404.073 1.198.072 1.747.003 4.079-.431 8.438-2.6 8.438-7.398 0-2.217-.978-4.01-2.83-5.183zM210.808 58.235c-1.954 0-3.714 1.876-4.651 3.095v-3.355l-.467.177c-1.954.74-3.602 1.163-5.51 1.414l-.3.039v.922l.304.036c2.194.263 2.236.308 2.236 2.417v7.65c0 2.18-.136 2.322-2.436 2.521l-.315.027v1.08h9.875v-1.087l-.322-.021c-3.065-.201-3.065-.376-3.065-2.52v-6.999c.942-1.618 1.905-2.472 2.788-2.472.579 0 .968.168 1.601.692.321.263.761.315 1.385.077.904-.438 1.423-1.073 1.423-1.741 0-.924-1.046-1.952-2.546-1.952M218.468 54.801c1.147 0 2.079-.812 2.079-1.81 0-1.015-.895-1.811-2.079-1.811-1.124 0-2.038.828-2.038 1.846 0 .945.952 1.775 2.038 1.775M220.547 70.63V58.012l-.465.175c-1.607.602-3.435 1.055-5.433 1.345l-.295.043v.972l.287.049c2.109.361 2.17.427 2.17 2.384v7.65c0 2.18-.142 2.322-2.52 2.521l-.317.026v1.081h9.454v-1.082l-.317-.025c-2.444-.198-2.564-.315-2.564-2.521M242.347 70.594v-6.916c0-3.408-2.075-5.443-5.551-5.443-1.262 0-2.172.416-3.421 1.052-.91.481-1.779.99-2.457 1.402v-2.717l-.468.18c-1.622.625-3.336 1.074-5.394 1.416l-.288.047v.922l.275.057c2.056.424 2.136.441 2.136 2.422v7.578c0 2.215-.155 2.358-2.769 2.556l-.319.024v1.084h9.493v-1.08l-.314-.027c-2.22-.196-2.352-.337-2.352-2.521v-8.416c1.109-.781 2.748-1.578 4.184-1.578 2.394 0 3.509 1.189 3.509 3.74v5.871c0 2.615-.224 2.708-2.647 2.904l-.317.025v1.082h9.157V73.18l-.312-.029c-2.065-.192-2.145-.287-2.145-2.557M259.012 70.085c-1.879 1.548-3.174 1.842-4.905 1.842-2.371 0-6.133-1.727-6.133-6.361 0-3.307 1.833-5.281 4.904-5.281 1.534 0 2.858.434 3.943 1.296.483.362.685.489 1.052.489.574 0 1.489-.719 1.489-1.57 0-.469-.231-.843-.778-1.257-.696-.502-2.115-1.008-3.758-1.008-1.557 0-4.064.611-6.155 1.975-2.885 1.864-4.348 4.253-4.348 7.102 0 3.57 2.954 7.364 8.429 7.364 2.304 0 4.948-1.387 7.07-3.709l.209-.228-.762-.866-.257.212M271.958 63.438c-2.349.068-4.564.072-6.887.072.611-2.523 2.411-3.677 3.894-3.677h.04c1.048 0 1.923.329 2.531.95.589.603.914 1.477.891 2.406 0 .105 0 .249-.469.249zm4.46-.039c0-2.443-2.557-5.164-6.271-5.164-2.046 0-4.36.972-6.196 2.604-1.848 1.671-2.825 3.813-2.825 6.193 0 3.682 2.612 7.644 8.345 7.644 1.252 0 4.272-.754 6.738-3.611l.207-.238-.773-.798-.244.19c-1.425 1.111-2.906 1.674-4.405 1.674-1.707 0-3.315-.639-4.412-1.754-1.171-1.19-1.777-2.862-1.803-4.973 4.979-.143 9.803-.446 10.477-.556.737-.152 1.162-.399 1.162-1.211zM303.697 68.531c-.435.956-1.109 2.268-1.837 3.079-.859.869-1.59 1.223-5.425 1.223-1.981 0-3.414 0-4.139-.47-.485-.3-.765-.8-.765-2.467v-6.885h3.929c3.658 0 3.733.384 4.152 2.516l.055.278h1.135v-7.01h-1.132l-.057.273c-.428 2.016-.505 2.379-4.238 2.379h-3.844v-8.351c0-.739 0-.739.926-.739h2.834c3.359 0 4.412.206 5.124 1.007.534.579.926 1.407 1.271 2.687l.082.305 1.224-.218-.034-.319c-.125-1.17-.296-3.397-.296-4.538v-.345h-18.51v1.076l.313.029c2.9.267 3.074.283 3.074 3.395v14.53c0 2.731-.086 2.944-3.702 3.184l-.322.022v1.086h19.896l.079-.233c.417-1.229 1.189-3.983 1.45-5.171l.076-.35-1.209-.216-.11.243M318.862 71.107c-.877.545-2.292 1.065-3.638 1.065-2.751 0-5.535-2.077-5.535-6.047 0-4.995 3.269-6.328 5.199-6.328 1.705 0 3.146.603 3.974 1.658v9.652zm3.733-.792V48.267l-.443.133c-1.428.427-4.041.996-6.073 1.21l-.309.033v.947l.324.019c2.768.169 2.768.331 2.768 2.313v5.56c-.948-.219-1.883-.247-2.536-.247-5.853 0-10.797 4.044-10.797 8.832 0 5.191 4.676 7.609 7.836 7.609.822 0 1.966-.365 3.501-1.119l1.996-1.005v2.258l.453-.151c1.464-.487 3.48-.918 5.992-1.28l.296-.043v-.954l-1.577-.172c-1.351-.152-1.431-.258-1.431-1.895z"/><path d="M352.016 59.725v-1.07h-7.718v1.063l.297.042c1.217.169 2.164.326 2.38.657.142.217.054.669-.12 1.278-.702 2.373-1.586 4.786-2.44 7.119l-.275.751c-1.877-3.918-3.434-7.243-4.853-10.528l-.09-.208h-1.047l-.089.211a817.413 817.413 0 0 1-4.461 10.328c-1.289-3.029-2.297-5.555-3.153-7.905-.179-.473-.343-.95-.232-1.136.172-.286 1.202-.443 2.156-.567l.299-.039v-1.066h-8.944v1.073l.309.033c1.809.194 1.957.307 2.638 2.023 1.743 4.275 3.434 8.461 4.991 12.667l.083.225h1.148l.089-.211c1.227-2.939 2.443-5.6 3.731-8.417.287-.629.577-1.262.868-1.903.483 1.005.961 1.986 1.431 2.95 1.241 2.543 2.412 4.946 3.453 7.373l.089.208h1.136l1.015-2.537c1.587-3.974 3.229-8.083 4.144-10.065.784-1.729.947-2.088 2.86-2.313l.305-.036M360.893 71.201c-.832.655-2.039 1.007-2.793 1.007-1.141 0-2.746-.772-2.746-2.487 0-1.022.598-1.624 2.288-2.3.34-.14.821-.328 1.334-.527.655-.255 1.375-.535 1.917-.764v5.071zm6.083.57a2.216 2.216 0 0 1-1.211.331c-.749 0-1.179-.6-1.179-1.647v-6.673c0-2.208-.599-3.585-2.018-4.617-.897-.591-2.08-.924-3.383-.925-2.106.391-4.899 1.671-6.21 2.454-.684.405-1.353.857-1.353 1.517 0 .926 1.068 1.672 1.952 1.672.707 0 1.133-.321 1.339-.999.379-1.108.742-1.774 1.186-2.171.369-.365.93-.566 1.579-.566 2.073 0 3.215 1.379 3.215 3.882v.676c-1.155.65-3.847 1.459-6.101 2.1-2.369.69-3.425 1.784-3.425 3.546 0 2.089 2.094 4.325 5.212 4.325.882 0 2.567-.954 4.517-2.107.196.494.457.97.88 1.321.515.463 1.464.786 2.307.786h.091l3.499-1.987-.579-1.122-.318.204zM381.856 60.187c0-.924-1.047-1.952-2.548-1.952-1.949 0-3.71 1.874-4.649 3.094v-3.354l-.467.177c-1.953.739-3.601 1.162-5.508 1.414l-.3.039v.922l.304.036c2.191.263 2.233.308 2.233 2.417v7.65c0 2.181-.136 2.322-2.437 2.521l-.316.027v1.08h9.877v-1.087l-.322-.021c-3.064-.201-3.064-.376-3.064-2.52v-6.999c.942-1.618 1.905-2.472 2.787-2.472.58 0 .969.168 1.603.692.322.263.761.314 1.384.077.904-.439 1.423-1.073 1.423-1.741"/><path d="M393.737 71.107c-.876.545-2.291 1.065-3.635 1.065-2.752 0-5.538-2.077-5.538-6.047 0-4.995 3.269-6.328 5.199-6.328 1.705 0 3.146.603 3.974 1.658v9.652zm5.167 1.103c-1.351-.151-1.431-.258-1.431-1.895V48.268l-.443.132c-1.43.426-4.045.996-6.075 1.21l-.309.033v.947l.323.019c2.768.169 2.768.331 2.768 2.313v5.56c-.947-.219-1.881-.247-2.534-.247-5.855 0-10.801 4.044-10.801 8.832 0 5.191 4.677 7.609 7.837 7.609.824 0 1.968-.365 3.499-1.119l1.999-1.006v2.259l.454-.151c1.464-.488 3.48-.919 5.994-1.28l.296-.042v-.955l-1.577-.172zM147.758 85.604l.382.028c6.139.465 6.635 1.037 6.635 7.65v33.687c0 6.617-.496 7.189-6.634 7.65l-.383.029v1.755h21.306v-1.755l-.383-.029c-6.211-.461-6.713-1.032-6.713-7.65V93.282c0-6.614.502-7.186 6.713-7.65l.383-.028v-1.755h-21.306v1.755M190.807 106.565l-.583-.315c-6.229-3.393-10.312-6.068-10.312-12.087 0-4.154 2.328-9.007 8.89-9.007 5.427 0 8.905 3.28 10.945 10.32l.108.374 1.818-.411-.188-1.236c-.598-3.918-1.029-6.748-1.256-9.417l-.025-.293-.285-.072a51.196 51.196 0 0 1-1.208-.329c-2.052-.573-4.861-1.359-8.765-1.359-10.879 0-16.571 7.196-16.571 14.304 0 8.541 7.38 12.684 12.264 15.425.409.23.799.448 1.163.658 6.184 3.563 10.237 6.318 10.237 11.935 0 6.047-3.688 9.804-9.624 9.804-7.883 0-12.225-7.007-13.547-13.007l-.103-.466-1.797.675.022.307c.151 2.153 1.374 10.73 1.994 12.115l.061.136.135.067c.924.451 2.249.95 4.318 1.624l.352.094c1.754.47 4.155 1.115 7.342 1.115 11.557 0 17.793-7.739 17.793-15.021 0-8.837-7.002-12.607-13.178-15.933M244.273 124.29l.122-.427-1.944-.408-.114.357c-1.03 3.246-2.311 5.758-3.913 7.675-1.582 1.827-3.885 2.414-9.48 2.414-3.691 0-6.268-.165-7.694-.974-1.179-.744-1.52-2.259-1.52-6.755V93.203c0-6.87.515-7.11 6.066-7.571l.379-.031v-1.752h-20.163v1.753l.381.03c5.915.466 6.146.749 6.146 7.571v33.609c0 6.762-.497 7.346-6.636 7.807l-.382.029v1.755h35.809l.087-.297c.456-1.561 1.118-4.45 1.702-6.998.464-2.026.903-3.94 1.154-4.818M273.887 113.068h-14.078l1.224-3.244c1.981-5.258 4.026-10.688 6.153-15.977l6.701 19.221zm12.557 13.516c-5.575-14.966-10.875-29.734-15.826-43.578l-.141-.392-1.87.684-17.285 43.12c-2.787 7.056-3.908 7.758-8.389 8.202l-.372.036v1.747h17.064v-1.749l-.376-.035c-2.923-.262-4.734-.596-5.34-1.524-.565-.865-.205-2.445.557-4.717l.469-1.41c1.047-3.153 2.232-6.72 3.75-10.921h16.15l1.165 3.172c1.762 4.796 3.155 8.584 3.951 11.306.406 1.288.443 2.091.12 2.604-.5.791-2.035 1.147-4.518 1.493l-.355.05v1.731h19.919v-1.747l-.373-.036c-4.681-.457-5.72-1.093-8.3-8.036zM363.485 91.528c0-3.947.411-4.454.947-4.718.804-.281 2.397-.617 5.413-.617 5.541 0 10.03.949 13.345 2.822 6.648 3.624 10.31 10.839 10.31 20.314 0 11.802-5.83 24.413-22.187 24.413-5.076 0-7.828-1.155-7.828-7.25V91.528zm31.367-.857c-4.773-4.591-12.232-6.822-22.803-6.822h-39.578v1.756l.384.027c5.55.395 6.83 1.308 7.206 5.143.285 2.661.407 6.466.407 12.726v20.852l-34.027-40.358-.124-.146h-11.7v1.747l.374.036c4.177.394 4.945 1.066 6.735 3.128 1.393 1.661 1.616 2.37 1.616 8.437v18.358c0 7.265-.287 11.032-.458 13.283l-.025.329c-.383 4.262-1.877 5.065-6.479 5.452l-.378.033v1.751h18.041v-1.75l-.376-.034c-5.217-.463-6.582-1.152-6.969-5.462-.327-2.88-.487-7.33-.487-13.602V94.713l35.087 42.499.124.15h1.913v-33.778c0-6.993.157-10.336.325-12.902.308-3.92 1.694-4.667 5.99-5.05l.376-.034v-.034c5.656.452 6.189.743 6.189 7.718v33.687c0 6.618-.52 7.19-6.96 7.65l-.383.028v1.756h18.773c10.117 0 18.526-2.348 24.318-6.791 6.458-4.932 9.871-12.36 9.871-21.48 0-7.128-2.415-13.167-6.982-17.461z"/></g></symbol><symbol id="icon-sign-in" viewBox="0 0 1792 1792"><path d="M1312 896q0 26-19 45l-544 544q-19 19-45 19t-45-19-19-45v-288H192q-26 0-45-19t-19-45V704q0-26 19-45t45-19h448V352q0-26 19-45t45-19 45 19l544 544q19 19 19 45zm352-352v704q0 119-84.5 203.5T1376 1536h-320q-13 0-22.5-9.5t-9.5-22.5q0-4-1-20t-.5-26.5 3-23.5 10-19.5 20.5-6.5h320q66 0 113-47t47-113V544q0-66-47-113t-113-47h-312l-11.5-1-11.5-3-8-5.5-7-9-2-13.5q0-4-1-20t-.5-26.5 3-23.5 10-19.5 20.5-6.5h320q119 0 203.5 84.5T1664 544z" fill="#fff"/></symbol><symbol id="icon-sign-out" viewBox="0 0 1792 1792"><path d="M704 1440q0 4 1 20t.5 26.5-3 23.5-10 19.5-20.5 6.5H352q-119 0-203.5-84.5T64 1248V544q0-119 84.5-203.5T352 256h320q13 0 22.5 9.5T704 288q0 4 1 20t.5 26.5-3 23.5-10 19.5T672 384H352q-66 0-113 47t-47 113v704q0 66 47 113t113 47h312l11.5 1 11.5 3 8 5.5 7 9 2 13.5zm928-544q0 26-19 45l-544 544q-19 19-45 19t-45-19-19-45v-288H512q-26 0-45-19t-19-45V704q0-26 19-45t45-19h448V352q0-26 19-45t45-19 45 19l544 544q19 19 19 45z" fill="#fff"/></symbol></svg>