<?xml version="1.0" encoding="UTF-8" standalone="no"?>
<!DOCTYPE svg PUBLIC "-//W3C//DTD SVG 1.1//EN" "http://www.w3.org/Graphics/SVG/1.1/DTD/svg11.dtd">
<svg width="100%" height="100%" viewBox="0 0 1680 659" version="1.1" xmlns="http://www.w3.org/2000/svg" xmlns:xlink="http://www.w3.org/1999/xlink" xml:space="preserve" style="fill-rule:evenodd;clip-rule:evenodd;stroke-linejoin:round;stroke-miterlimit:1.41421;">
    <g transform="matrix(4.16667,0,0,4.16667,0,0)">
        <path d="M122.095,94.061C122.393,93.19 122.691,92.311 122.99,91.407L122.99,0.487L61.494,0.487L0,0.487L0,91.407C0.297,92.311 0.596,93.19 0.895,94.061L61.494,53.021L122.095,94.061Z" style="fill:rgb(139,31,3);fill-rule:nonzero;"/>
        <path d="M3.122,100.278C19.206,143.36 34.267,141.893 61.493,158C88.72,141.893 103.786,143.36 119.867,100.278L61.573,60.967L3.122,100.278Z" style="fill:rgb(92,135,39);fill-rule:nonzero;"/>
        <path d="M60.161,88.329C60.161,88.329 60.161,87.673 59.516,87.544C59.516,87.544 56.264,85.573 49.698,85.573C43.128,85.573 37.692,88.575 37.692,88.575C37.692,88.575 37.119,88.891 37.119,89.546L37.119,125.057C37.119,125.057 37.119,125.713 37.761,125.586C37.761,125.586 44.317,122.727 51.014,122.949C57.71,123.17 59.605,124.367 59.605,124.367C59.605,124.367 60.161,124.719 60.161,124.063L60.161,88.329Z" style="fill:white;fill-rule:nonzero;"/>
        <path d="M62.829,88.329C62.829,88.329 62.829,87.673 63.472,87.544C63.472,87.544 66.724,85.573 73.292,85.573C79.859,85.573 85.297,88.575 85.297,88.575C85.297,88.575 85.87,88.891 85.87,89.546L85.87,125.057C85.87,125.057 85.87,125.713 85.226,125.586C85.226,125.586 78.671,122.727 71.974,122.949C65.279,123.17 63.383,124.367 63.383,124.367C63.383,124.367 62.829,124.719 62.829,124.063L62.829,88.329Z" style="fill:white;fill-rule:nonzero;"/>
        <path d="M91.841,94.59C91.841,94.59 91.841,93.928 91.28,93.577L88.362,91.758C88.362,91.758 88.291,91.715 88.197,91.688L88.197,126.733C88.197,126.733 88.197,127.395 87.466,127.793C86.739,128.19 85.987,127.926 85.987,127.926C85.987,127.926 76.729,123.817 70.101,125.074C64.788,126.084 62.282,127.305 61.496,127.748C60.708,127.305 58.201,126.084 52.888,125.074C46.26,123.817 37.002,127.926 37.002,127.926C37.002,127.926 36.252,128.19 35.522,127.793C34.793,127.395 34.793,126.733 34.793,126.733L34.793,91.688C34.701,91.715 34.628,91.758 34.628,91.758L31.709,93.577C31.146,93.928 31.146,94.59 31.146,94.59L31.153,132.176C31.153,132.838 31.751,133.119 31.751,133.119L34.321,132.977C34.321,132.977 37.592,129.065 50.171,129.065C55.748,129.065 58.722,132.043 58.722,132.043L64.267,132.043C64.267,132.043 67.24,129.065 72.817,129.065C85.395,129.065 88.668,132.977 88.668,132.977L91.238,133.119C91.238,133.119 91.838,132.838 91.838,132.176L91.841,94.59Z" style="fill:rgb(251,176,64);fill-rule:nonzero;"/>
        <path d="M108.858,38.009L107.085,36.648L106.79,39.073L105.724,36.944L103.949,39.977L105.961,40.259C105.961,40.259 104.233,42.289 102.172,41.501C101.676,41.312 101.276,40.922 100.949,40.486C101.188,40.549 101.71,40.623 102.069,40.231C102.553,39.706 101.853,39.102 101.853,39.102C101.853,39.102 101.784,39.516 101.298,39.568C100.807,39.617 100.789,38.896 100.789,38.896C100.789,38.896 101.148,38.784 101.212,38.499C101.259,38.291 100.864,37.974 100.864,37.974C100.864,37.974 101.482,36.594 102.362,36.98C103.262,37.374 102.399,38.284 102.399,38.284C102.399,38.284 103.587,38.128 104.104,37.662C104.623,37.196 104.508,36.13 103.271,35.872C102.03,35.613 101.129,36.546 101.129,36.546C101.129,36.546 101.678,35.549 101.813,34.604C101.948,33.659 101.311,32.819 101.311,32.819C101.311,32.819 100.176,33.392 99.93,33.919C99.683,34.447 99.711,36.283 99.711,36.283C99.711,36.283 98.755,34.875 98.14,34.658C97.789,34.532 96.9,34.577 96.765,35.521C96.629,36.466 97.682,37.254 97.682,37.254C97.682,37.254 97.647,36.721 97.934,36.37C98.222,36.022 98.645,36.266 98.935,36.637C99.207,36.982 99.217,37.519 99.217,37.519C99.217,37.519 98.796,37.865 98.793,38.043C98.79,38.221 98.96,38.577 98.96,38.577C98.96,38.577 98.716,39.049 98.304,38.922C97.892,38.796 98.084,37.97 98.084,37.97C98.084,37.97 97.604,38.319 97.305,38.549C97.003,38.78 97.231,39.296 97.641,39.621C97.652,39.63 97.669,39.639 97.686,39.652C97.064,39.893 96.371,40.04 95.663,39.903C94.661,39.708 93.996,39.121 93.562,38.555L93.057,36.678L94.895,38.069L95.249,34.341L92.94,35.702L94.063,33.155L90.868,33.155L91.756,35.642L89.45,34.161L89.745,37.948L91.639,36.678L91.078,38.443C90.605,39.058 89.748,39.695 88.206,39.784C87.537,39.823 87.018,39.749 86.587,39.628C86.78,39.548 86.961,39.461 87.082,39.37C87.497,39.052 87.733,38.542 87.436,38.306C87.142,38.069 86.667,37.712 86.667,37.712C86.667,37.712 86.844,38.542 86.43,38.661C86.015,38.778 85.781,38.306 85.781,38.306C85.781,38.306 85.956,37.948 85.956,37.773C85.956,37.595 85.543,37.239 85.543,37.239C85.543,37.239 85.561,36.706 85.837,36.363C86.134,35.995 86.563,35.759 86.844,36.114C87.125,36.472 87.082,37.003 87.082,37.003C87.082,37.003 88.145,36.234 88.028,35.286C87.911,34.341 87.022,34.28 86.667,34.398C86.049,34.606 85.068,35.995 85.068,35.995C85.068,35.995 85.128,34.161 84.892,33.63C84.654,33.097 83.531,32.504 83.531,32.504C83.531,32.504 82.878,33.333 82.998,34.28C83.115,35.228 83.648,36.234 83.648,36.234C83.648,36.234 82.759,35.286 81.517,35.523C80.275,35.759 80.141,36.825 80.654,37.3C81.164,37.773 82.345,37.948 82.345,37.948C82.345,37.948 81.502,37.025 82.406,36.648C83.293,36.277 83.89,37.664 83.89,37.664C83.89,37.664 83.487,37.979 83.531,38.187C83.587,38.471 83.943,38.59 83.943,38.59C83.943,38.59 83.915,39.31 83.428,39.251C82.939,39.193 82.878,38.778 82.878,38.778C82.878,38.778 82.169,39.37 82.642,39.903C83.092,40.408 83.789,40.174 83.862,40.147C83.461,40.565 82.913,40.915 82.109,41.027C79.564,41.382 78.501,39.487 78.501,39.487L80.453,39.515L79.031,36.528L77.908,38.187L77.612,35.995L75.778,36.825L80.689,46.295L81.571,46.295C83.102,45.026 86.762,43.75 92.112,43.75C97.461,43.75 101.214,45.026 102.746,46.295L103.652,46.295L108.858,38.009Z" style="fill:rgb(251,176,64);fill-rule:nonzero;"/>
        <path d="M105.927,30.31C105.874,30.223 105.784,30.149 105.688,30.07C105.521,29.934 105.332,29.778 105.288,29.505C105.238,29.201 104.942,28.611 104.575,28.611C104.433,28.611 104.009,28.878 102.762,30.661L102.713,30.733C102.522,31.004 102.399,31.161 102.313,31.256L103.123,31.444C103.277,31.648 103.895,32.525 104.064,33.727C104.306,33.797 104.529,33.894 104.744,34C104.962,33.726 105.178,33.401 105.308,33.089C105.386,32.824 105.681,32.492 105.856,32.261C105.98,32.097 106.033,32.031 106.203,31.873C106.441,31.641 106.441,31.641 106.445,31.576C106.475,31.201 106.129,30.64 105.961,30.367L105.927,30.31Z" style="fill:white;fill-rule:nonzero;"/>
        <path d="M80.879,28.571C80.513,28.429 80.273,28.762 80.009,29.131C79.963,29.195 79.918,29.258 79.874,29.319C79.512,29.802 78.877,31.013 78.877,31.277C78.877,31.539 78.97,31.855 79.076,32.132C79.254,32.355 79.398,32.6 79.578,32.826C79.685,32.968 79.831,33.077 79.946,33.214C80.027,33.315 80.056,33.473 80.088,33.611C80.3,33.512 80.524,33.428 80.761,33.364C80.951,32.165 81.585,31.298 81.743,31.097L82.235,30.993C81.898,30.052 81.417,28.773 80.879,28.571Z" style="fill:white;fill-rule:nonzero;"/>
        <path d="M87.633,17.661C87.702,17.699 87.754,17.723 87.794,17.737C87.688,17.497 87.575,17.047 87.825,16.464C87.876,16.344 87.94,16.194 88.091,16.194C88.283,16.194 88.307,16.375 88.342,16.625C88.412,17.122 88.554,18.157 89.503,18.485C90.068,18.681 90.478,18.798 90.808,18.893C91.42,19.068 91.727,19.155 92.032,19.482C92.238,19.702 92.416,19.985 92.573,20.235C92.659,20.372 92.77,20.55 92.839,20.628C92.908,20.574 93.022,20.468 93.125,20.369C93.516,20 94.107,19.441 94.776,19.212C96.155,18.736 97.062,18.246 97.331,17.832C97.967,16.851 97.531,15.872 97.296,15.346L97.263,15.27C97.227,15.19 97.19,15.106 97.248,15.017C97.282,14.966 97.34,14.934 97.401,14.934C97.539,14.934 97.548,14.934 98.446,16.547C98.484,16.555 98.538,16.563 98.603,16.563C98.783,16.563 98.952,16.504 99.105,16.39C99.423,16.152 99.17,15.678 99.168,15.673C99.124,15.591 99.148,15.489 99.225,15.436C99.3,15.384 99.405,15.398 99.466,15.468C99.59,15.612 99.829,15.827 99.973,15.856C100.07,15.831 100.439,15.436 100.742,15.008C100.798,14.928 100.91,14.906 100.99,14.961C101.072,15.015 101.097,15.124 101.046,15.207C100.952,15.363 100.106,16.742 99.569,16.981C99.159,17.162 98.601,17.418 98.409,17.506C98.284,17.822 97.739,19.034 96.551,19.551C95.395,20.052 94.323,20.556 93.896,21.214C93.71,21.498 93.404,22.006 93.312,22.158C93.349,23.572 93.388,26.759 93.014,27.143C92.95,27.209 92.88,27.223 92.834,27.223C92.522,27.223 92.477,26.781 92.383,25.385C92.336,24.693 92.285,23.907 92.173,23.617C92.003,23.174 91.967,22.663 91.932,22.169C91.881,21.454 91.835,20.777 91.424,20.28C90.794,19.515 90.129,19.23 89.857,19.23C89.796,19.23 89.777,19.243 89.777,19.243C89.739,19.61 89.738,19.883 89.738,19.885C89.738,19.96 89.693,20.027 89.624,20.054C89.553,20.082 89.476,20.065 89.423,20.011C89.414,20 88.426,18.96 87.948,18.641C87.64,18.438 87.015,18.059 86.491,17.753C86.534,18.054 86.565,18.355 86.609,18.653C86.669,19.026 86.706,19.403 86.756,19.777C86.836,20.363 87.043,20.934 87.192,21.494C87.246,21.688 87.304,21.939 87.419,22.107C87.517,22.256 87.584,22.345 87.633,22.533C87.768,22.678 89.218,23.459 89.165,23.736C88.884,23.961 87.29,23.031 87.495,23.55C87.462,23.827 87.53,23.734 87.569,24.007L87.662,24.614C87.662,24.969 87.823,25.301 87.857,25.646C87.875,25.858 87.939,26.069 87.985,26.275C88.061,26.641 88.156,27.004 88.241,27.369C88.308,27.685 88.316,28.049 88.319,28.387C88.323,28.762 88.365,29.149 88.433,29.519C88.483,29.807 88.499,30.085 88.497,30.377C88.497,30.441 88.499,30.507 88.502,30.576C88.514,30.816 88.55,31.073 88.607,31.296C88.672,31.539 88.746,31.762 88.767,32.009C88.783,32.199 88.839,32.431 88.864,32.652C89.038,32.768 89.205,32.891 89.349,33.036L90.868,30.881L94.063,30.881L95.562,33.179C95.709,33.045 95.877,32.931 96.05,32.826C96.067,32.738 96.08,32.645 96.1,32.56C96.392,31.361 96.59,30.135 96.835,28.927L97.934,24.144C97.934,24.144 98.023,23.953 98.131,23.706C98.169,23.621 98.21,23.527 98.248,23.431C98.279,23.363 98.308,23.292 98.333,23.223C98.411,23.029 98.475,22.848 98.502,22.729C98.585,22.349 98.894,20.129 98.894,20.129C98.894,20.129 98.043,20.387 98.043,19.997C98.043,19.852 98.873,19.397 99.028,19.18C99.158,18.993 99.187,18.282 99.187,18.282L101.145,15.904C101.145,15.904 102.17,13.922 102.17,13.328C102.17,12.116 101.735,10.683 101.735,10.683C101.558,10.3 101.381,9.918 101.205,9.537C101.097,9.31 101.019,9.063 100.828,8.895C100.604,8.698 100.322,8.596 100.082,8.423C99.78,8.208 99.431,8.052 99.089,7.937C98.9,7.876 98.749,7.821 98.556,7.796C98.352,7.771 98.137,7.76 97.927,7.75C97.554,7.727 97.151,7.798 96.779,7.846C96.633,7.863 96.502,7.94 96.363,8.004C95.629,8.336 94.892,8.67 94.157,9.004C93.847,9.414 93.794,9.624 93.742,10.952C93.687,12.404 93.391,14.903 93.391,14.903C93.391,14.903 93.124,15.215 93.026,14.674C92.837,13.657 92.571,12.049 92.571,11.176C92.571,10.15 92.081,9.26 91.851,8.896C91.48,8.655 90.807,8.219 90.53,8.039C90.029,7.718 88.316,7.632 87.809,7.79C87.413,7.915 86.981,7.983 86.609,8.176C86.418,8.278 86.242,8.409 86.078,8.55C85.874,8.722 85.694,8.836 85.521,9.056C85.403,9.211 85.235,9.351 85.134,9.522C85.042,9.695 84.967,10.02 84.978,10.226C84.985,10.404 84.959,10.456 84.946,10.649C84.918,11.048 84.558,11.295 84.459,11.738C84.363,12.184 84.348,12.608 84.348,13.08C84.348,14.419 84.931,15.652 85.857,16.615C86.382,16.929 87.289,17.468 87.633,17.661Z" style="fill:white;fill-rule:nonzero;"/>
        <path d="M92.112,46.025C91.125,46.025 90.244,46.083 89.416,46.163C89.555,46.863 89.651,47.78 89.67,47.975C89.718,48.508 89.688,49.057 89.752,49.585C89.882,50.635 89.756,51.677 89.756,52.736C89.756,53.26 89.722,53.786 89.841,54.304C89.954,54.803 89.991,55.372 90.279,55.813C90.398,55.999 90.587,56.108 90.73,56.268C90.847,56.401 90.961,56.513 91.094,56.625C91.153,56.675 91.309,56.769 91.345,56.817C91.45,56.948 91.434,57.229 91.462,57.4C91.545,57.865 91.545,58.356 91.526,58.832C91.505,59.322 91.498,59.806 91.469,60.297C91.441,60.737 91.404,61.268 91.681,61.648C92.087,62.211 92.273,60.686 92.276,60.468C92.287,59.567 92.219,58.644 92.347,57.755C92.408,57.352 92.388,56.714 92.631,56.392C92.758,56.225 93.026,56.111 93.199,55.992C93.416,55.843 93.638,55.7 93.826,55.511C94.055,55.281 94.176,55.002 94.274,54.7C94.388,54.36 94.516,54.029 94.597,53.682C94.626,53.569 94.655,53.431 94.662,53.312C94.679,53.021 94.66,52.722 94.66,52.427C94.66,52.143 94.649,51.855 94.665,51.57C94.675,51.389 94.697,51.204 94.706,51.019C94.713,50.902 94.675,50.74 94.71,50.652C94.69,50.665 94.679,50.652 94.656,50.687C95.169,49.814 95.111,48.643 95.25,47.674C95.271,47.516 95.267,47.21 95.342,47.069C95.377,47.004 95.429,46.603 95.495,46.225C94.492,46.103 93.372,46.025 92.112,46.025Z" style="fill:white;fill-rule:nonzero;"/>
        <path d="M117.31,22.446C117.001,22.186 116.618,22.013 116.271,21.789C115.836,21.504 115.291,21.471 114.788,21.501C114.7,21.507 114.651,21.494 114.6,21.484C114.311,21.616 114.066,21.827 114.066,22.119C114.066,22.566 113.174,25.548 112.168,26.194C111.284,26.762 111.442,26.346 111.777,25.971C112.113,25.598 112.784,23.699 112.895,22.453C112.975,21.56 112.379,20.251 112.025,19.567C112.013,19.552 112.001,19.539 111.986,19.525C111.869,19.411 111.745,19.308 111.663,19.173C111.572,19.016 111.521,18.904 111.368,18.824C111.208,18.74 111.039,18.627 110.869,18.571C110.65,18.499 110.508,18.348 110.334,18.229C109.996,17.99 109.537,17.866 109.123,17.819C108.674,17.769 108.229,17.76 107.771,17.76C107.657,17.76 107.534,17.749 107.419,17.76C107.302,17.772 107.205,17.825 107.092,17.84C106.708,17.89 106.315,17.879 105.935,17.968C105.735,18.014 105.531,18.066 105.371,18.181C105.206,18.298 105.055,18.443 104.875,18.545C104.675,18.662 104.532,18.803 104.322,18.881C104.131,18.952 103.983,19.107 103.819,19.224C103.503,19.448 103.277,19.736 103.093,20.07C102.961,20.3 102.798,20.509 102.73,20.792C102.684,20.992 102.638,21.176 102.521,21.348C102.462,21.437 102.446,21.526 102.371,21.592C102.298,21.653 102.208,21.681 102.14,21.755C102.003,21.901 101.927,22.095 101.81,22.256C101.439,22.778 100.864,23.12 100.533,23.68C100.459,23.808 100.384,23.944 100.342,24.087C100.313,24.189 100.32,24.315 100.288,24.41C100.225,24.601 100.086,24.865 99.982,25.034C99.85,25.249 99.661,25.422 99.542,25.646C99.406,25.899 99.291,26.161 99.206,26.435C99.12,26.714 98.998,26.959 98.88,27.228C98.61,27.854 98.339,28.481 98.07,29.105C97.956,29.371 98.091,29.705 97.977,29.972C97.867,30.228 97.579,30.438 97.453,30.681C97.366,30.852 97.323,31.033 97.27,31.223C97.203,31.454 97.17,31.684 97.082,31.912C97.008,32.104 96.977,32.275 96.953,32.454C97.364,32.348 97.797,32.303 98.237,32.359C98.79,31.647 99.62,31.124 100.286,30.788L101.913,31.164C101.926,31.097 101.958,31.024 102.012,30.93C102.278,30.467 103.751,27.409 103.778,27.083C103.778,27.005 103.737,26.788 103.693,26.56C103.534,25.723 103.421,25.004 103.646,24.693C103.825,24.441 103.927,23.525 103.947,23.006C103.947,22.967 103.948,21.866 104.119,21.158C104.367,20.124 104.506,20.124 104.599,20.124C104.655,20.124 104.711,20.152 104.746,20.197C104.807,20.278 104.83,20.309 104.572,21.241C104.501,21.504 104.636,22.123 104.727,22.423C104.972,22.259 105.47,21.88 105.914,21.528C105.941,21.507 105.976,21.494 106.011,21.49C106.011,21.49 106.041,21.487 106.085,21.487C106.35,21.487 106.44,21.596 106.47,21.687C106.534,21.886 106.337,22.063 106.134,22.21C105.739,22.497 105.014,23.104 104.596,23.933C104.374,24.369 104.484,25.279 104.549,25.823C104.572,26.014 104.59,26.165 104.59,26.25C104.59,26.599 104.938,27.7 105.204,27.814C105.191,27.796 105.305,27.653 105.402,27.242C105.526,26.714 106.164,26.188 106.19,26.165C106.253,26.117 106.337,26.11 106.402,26.152C106.469,26.194 106.501,26.274 106.483,26.349C106.469,26.411 106.332,26.964 106.035,27.224C105.882,27.36 105.746,28.469 106.342,29.745C106.637,30.382 107.146,31.057 107.577,31.567C107.683,31.654 107.781,31.75 107.867,31.843C108.009,32 108.146,32.218 108.318,32.345C108.522,32.494 108.813,32.642 109.042,32.727C109.239,32.803 109.354,32.818 109.545,32.894C109.736,32.974 110.675,33.306 110.661,32.894C110.659,32.814 110.373,32.64 110.373,32.56C110.27,32.224 110.488,32.174 110.577,32.05C110.7,31.884 110.898,31.847 111.089,31.801C111.331,31.736 111.565,31.619 111.8,31.545C112.235,31.409 112.584,31.157 112.968,30.912C113.223,30.638 113.476,30.364 113.699,30.07C113.81,29.741 114.073,28.85 113.894,28.32C113.721,27.803 113.765,27.74 113.809,27.681C113.843,27.633 113.902,27.602 113.961,27.602C114.042,27.602 114.194,27.602 114.316,28.288C114.333,28.382 114.347,28.47 114.359,28.554C114.427,28.983 114.471,29.207 114.784,29.384C114.996,29.374 115.205,29.367 115.421,29.324C115.747,29.261 115.979,29.068 116.252,28.834C116.438,28.673 116.607,28.522 116.761,28.331C116.871,28.194 116.943,28.049 117.021,27.893C117.073,27.784 117.105,27.777 117.18,27.692C117.504,27.334 117.45,26.688 117.45,26.222C117.45,26.159 117.439,26.101 117.433,26.04C117.407,25.938 117.383,25.832 117.334,25.723C117.228,25.483 117.11,25.305 116.965,25.166C116.883,25.11 116.802,25.051 116.723,24.993L116.364,24.766C116.265,24.709 116.176,24.669 116.104,24.642L116.103,24.644C115.959,24.621 115.761,24.591 115.775,24.406C115.783,24.311 115.871,24.235 115.966,24.235C116.042,24.235 116.159,24.275 116.216,24.295C116.403,24.339 116.585,24.452 116.753,24.569C116.921,24.666 117.06,24.758 117.192,24.88C117.275,24.935 117.358,24.985 117.443,25.028C117.722,25.167 117.959,24.867 117.96,24.864C117.962,24.861 117.967,24.864 117.968,24.861C118,24.789 118.036,24.709 118.051,24.647C118.107,24.444 118.118,24.191 118.104,23.97C118.072,23.472 117.687,22.77 117.31,22.446Z" style="fill:white;fill-rule:nonzero;"/>
        <path d="M103.481,58.381C103.481,58.381 102.433,56.025 102.426,56.014C102.329,55.793 102.194,55.528 102.13,55.303C102.052,55.02 102.307,54.814 102.398,54.562C102.526,54.215 102.66,53.87 102.678,53.496C102.687,53.248 102.706,52.99 102.678,52.741C102.649,52.503 102.55,52.279 102.518,52.043C102.496,51.883 102.474,51.694 102.448,51.562C102.381,51.224 102.266,50.882 102.205,50.544C102.112,50.006 101.952,49.482 101.837,48.954C101.783,48.709 101.719,48.446 101.67,48.182L101.294,48.047C100.708,47.561 99.053,46.783 96.325,46.348C96.385,46.722 96.43,47.103 96.502,47.247C96.608,47.45 96.669,47.661 96.777,47.868C96.92,48.147 97.141,48.406 97.252,48.705C97.356,48.993 97.345,49.317 97.423,49.611C97.519,49.965 97.601,50.337 97.8,50.66C97.935,50.875 98.091,51.028 98.106,51.293C98.121,51.506 98.051,51.746 98.088,51.952C98.124,52.143 98.288,52.295 98.337,52.492C98.394,52.724 98.44,52.846 98.589,53.036C98.979,53.526 99.315,54.018 99.78,54.449C100.104,54.748 100.435,55.045 100.807,55.273C101.018,55.401 101.213,55.479 101.295,55.697C101.388,55.934 101.43,56.166 101.544,56.398C101.64,56.597 101.913,56.92 101.889,57.15C102.102,57.057 102.24,57.586 102.294,57.737C102.37,57.958 102.479,58.228 102.632,58.401C102.847,58.642 102.987,58.966 103.224,59.179C103.307,59.253 103.449,59.322 103.566,59.291C103.731,59.25 103.69,59.157 103.664,59.005C103.623,58.795 103.542,58.587 103.481,58.381Z" style="fill:white;fill-rule:nonzero;"/>
        <path d="M74.587,30.914C74.811,30.992 75.067,31.042 75.247,31.205C75.385,31.329 75.494,31.486 75.552,31.665C75.586,31.773 75.595,31.923 75.687,32C75.81,32.1 76.068,32.069 76.201,32.012C76.354,31.948 76.421,31.82 76.556,31.724C76.63,31.668 76.719,31.625 76.803,31.579C76.818,31.558 76.816,31.528 76.837,31.515C76.86,31.501 79.002,30.086 79.212,28.406C79.426,26.699 79.222,26.036 79.22,26.029C79.193,25.944 79.232,25.851 79.311,25.811C79.39,25.77 79.488,25.793 79.542,25.867C79.554,25.885 79.845,26.299 79.962,26.944C80.014,27.226 80.104,27.444 80.18,27.592C80.44,27.182 80.942,26.286 80.942,25.47C80.942,25.15 80.96,24.862 80.974,24.598C81.014,23.895 81.043,23.387 80.74,22.818C80.32,22.03 80.103,21.804 80.1,21.801C80.035,21.734 80.032,21.626 80.093,21.555C80.155,21.485 80.259,21.471 80.337,21.526C80.484,21.633 81.776,22.582 81.967,23.18C82.101,23.598 82.034,24.877 81.953,26.151C81.934,26.443 81.919,26.665 81.919,26.753C81.919,27.078 82.296,28.735 82.677,29.497C82.808,29.757 82.989,30.273 83.133,30.802L84.593,30.492C85.25,30.839 86.069,31.376 86.61,32.098C87.009,32.054 87.402,32.102 87.781,32.194C87.791,32.175 87.806,32.151 87.812,32.137C87.857,32.046 87.892,31.979 87.901,31.86C87.918,31.656 87.82,31.476 87.745,31.292C87.623,30.992 87.502,30.685 87.354,30.405C87.287,30.281 87.287,30.134 87.222,30.009C87.185,29.933 87.135,29.909 87.085,29.84C86.968,29.686 87.032,29.406 87.032,29.216C87.032,28.851 86.92,28.511 86.823,28.16C86.75,27.894 86.669,27.633 86.595,27.364C86.54,27.169 86.45,26.989 86.37,26.807C86.318,26.689 86.288,26.54 86.212,26.439C86.092,26.282 85.925,26.296 85.857,26.081C85.787,25.858 85.809,25.624 85.701,25.409C85.501,25.008 85.246,24.664 85.048,24.25C84.899,23.938 84.81,23.573 84.747,23.235C84.693,22.947 84.526,22.695 84.35,22.468C84.19,22.256 84.139,22.052 84.118,21.787C84.11,21.655 84.082,21.57 84.04,21.445C83.979,21.28 83.936,21.068 83.748,20.994C83.676,20.966 83.616,20.977 83.552,20.936C83.46,20.873 83.392,20.728 83.329,20.626C83.154,20.363 83.076,20.043 82.973,19.756C82.848,19.402 82.536,19.119 82.252,18.874C82.116,18.762 81.953,18.716 81.803,18.621C81.697,18.556 81.599,18.458 81.512,18.371C81.426,18.289 81.352,18.235 81.249,18.163C80.854,17.895 80.492,17.58 80.03,17.474C79.857,17.435 79.705,17.372 79.544,17.308C79.252,17.193 78.94,17.134 78.632,17.082C78.341,17.032 78.041,16.958 77.746,16.954C77.555,16.952 77.364,16.954 77.171,16.954C76.93,16.954 76.695,16.956 76.459,16.999C76.15,17.054 75.851,17.179 75.542,17.229C75.103,17.296 74.872,17.617 74.57,17.902C74.305,18.15 73.999,18.345 73.705,18.559C73.003,19.355 72.748,20.307 72.748,21.393C72.748,22.905 73.382,24.416 73.811,25.267C74.033,25.708 73.866,26.04 73.866,26.04C73.866,26.04 73.592,25.405 73.144,24.857C72.7,24.304 72.693,24.633 71.911,23.012C71.421,21.997 71.699,20.697 71.974,19.868C71.871,19.925 71.775,19.984 71.644,19.982C71.555,19.982 71.47,19.992 71.388,20.008C70.985,20.093 70.591,20.248 70.194,20.357C69.891,20.44 69.589,20.547 69.308,20.682C68.85,20.901 68.538,21.245 68.21,21.622C67.885,21.995 67.727,22.603 67.599,23.074C67.552,23.242 67.556,23.408 67.556,23.582C67.556,23.881 67.718,24.172 67.78,24.458C67.808,24.59 67.877,24.64 67.938,24.759C68.057,24.983 68.057,25.235 68.083,25.474C68.191,26.412 68.404,27.423 69.134,28.095C69.303,28.249 69.579,28.318 69.789,28.426C70.116,28.602 70.414,28.782 70.752,28.912C71.205,29.081 71.783,28.979 72.173,29.285C72.398,29.465 72.496,29.809 72.741,29.996C72.853,30.085 72.995,30.162 73.121,30.234C73.339,30.356 73.532,30.514 73.762,30.609C74.033,30.72 74.312,30.818 74.587,30.914Z" style="fill:white;fill-rule:nonzero;"/>
        <path d="M83.023,48.047L82.754,48.143C82.728,48.301 82.707,48.46 82.668,48.614C82.472,49.371 82.206,50.14 82.036,50.925C81.969,51.216 81.843,51.474 81.744,51.751C81.566,52.256 81.585,52.763 81.696,53.294C81.843,54.005 82.293,54.939 82.078,55.692C82.014,55.921 81.9,56.133 81.8,56.35C81.594,56.693 81.383,57.039 81.175,57.382C81.006,57.661 80.837,57.94 80.667,58.217C80.537,58.436 80.261,58.819 80.716,58.902C80.996,58.951 81.074,58.731 81.219,58.561C81.369,58.383 81.484,58.251 81.573,58.032C81.659,57.826 81.854,57.677 81.989,57.492C82.133,57.295 82.188,57.076 82.272,56.851C82.394,56.517 82.639,56.242 82.81,55.951C82.949,55.713 83.081,55.484 83.33,55.334C83.621,55.158 83.971,55.056 84.282,54.909C84.669,54.723 84.971,54.391 85.183,54.025C85.355,53.724 85.604,53.468 85.786,53.173C86.031,52.77 86.237,52.409 86.418,51.954C86.553,51.614 86.71,51.282 86.781,50.93C86.827,50.702 86.87,50.477 86.944,50.248C87.132,49.666 87.273,49.061 87.466,48.478C87.548,48.237 87.691,48.025 87.773,47.786C87.862,47.537 87.906,47.238 88.048,47.017C88.103,46.931 88.201,46.619 88.314,46.288C85.393,46.708 83.635,47.539 83.023,48.047Z" style="fill:white;fill-rule:nonzero;"/>
        <path d="M24.707,10.85C25.198,10.178 26.205,9.463 26.757,9.186C26.983,9.073 27.445,8.915 27.73,8.821C28.014,8.915 28.477,9.073 28.703,9.186C29.256,9.463 30.262,10.178 30.753,10.85C31.363,11.68 30.976,13.51 30.088,14.563C29.786,14.921 28.789,15.735 27.809,16.542L27.432,16.943C27.686,16.938 27.877,16.969 28.014,17.03C28.628,17.303 28.943,17.827 28.891,18.069C28.869,18.167 28.759,18.258 28.654,18.258C28.532,18.258 28.452,18.177 28.402,18.114C28.361,18.074 28.106,17.97 27.731,17.97C27.384,17.97 26.768,18.062 26.535,18.671C26.31,19.257 26.712,19.942 26.824,20.113C26.873,20.154 26.905,20.215 26.905,20.28C26.905,20.404 26.777,20.503 26.676,20.5C26.672,20.5 26.671,20.5 26.669,20.5C26.632,20.5 26.593,20.49 26.561,20.472L26.395,20.383C26.377,20.383 24.951,19.947 25.284,18.28C25.396,17.717 26.359,16.843 27.199,16.168C26.382,15.494 25.628,14.865 25.373,14.563C24.484,13.51 24.096,11.68 24.707,10.85ZM24.709,19.16C22.902,20.543 19.949,22.689 19.886,23.543C19.72,25.817 20.204,28.534 20.385,29.918C20.439,30.32 20.608,31.569 20.827,33.179C21.957,33.111 23.18,33.06 24.504,33.029C24.377,30.969 24.267,29.198 24.267,29.198C24.267,29.198 24.156,27.148 24.267,26.426C24.378,25.706 25.653,24.432 25.653,24.432C25.653,24.432 26.618,23.444 27.595,22.44L28.116,21.744C28.085,21.734 28.054,21.72 28.022,21.703C27.995,21.69 27.402,21.395 27.476,21.101C27.502,20.996 27.613,20.92 27.719,20.923C27.842,20.944 28.072,20.994 28.153,20.994C29.075,21.011 29.432,20.61 29.612,20.014C29.678,19.787 29.694,19.451 29.673,19.334L29.64,19.271C29.604,19.191 29.62,19.095 29.678,19.03C29.736,18.963 29.828,18.938 29.913,18.963C29.989,18.986 30.649,19.23 30.306,20.736C30.173,21.324 29.059,22.226 28.24,22.824C29.073,23.68 29.808,24.432 29.808,24.432C29.808,24.432 31.082,25.706 31.193,26.426C31.303,27.148 31.193,29.198 31.193,29.198C31.193,29.198 31.082,30.977 30.955,33.043C32.28,33.079 33.502,33.136 34.628,33.211C34.85,31.586 35.022,30.323 35.075,29.918C35.256,28.534 35.739,25.817 35.574,23.543C35.51,22.689 32.557,20.543 30.751,19.16C32.358,17.448 34.764,14.719 35.044,13.231C35.433,11.18 34.31,9.534 31.917,8.576C29.591,7.645 28.242,8.228 27.73,8.559C27.217,8.228 25.869,7.645 23.543,8.576C21.15,9.534 20.027,11.18 20.415,13.231C20.696,14.719 23.102,17.448 24.709,19.16Z" style="fill:white;fill-rule:nonzero;"/>
        <path d="M14.893,45.858C13.459,46.1 12.374,46.364 11.568,46.609L11.568,53.312C11.568,53.312 11.512,55.42 13.287,55.42C15.06,55.42 14.893,53.312 14.893,53.312L14.893,45.858Z" style="fill:white;fill-rule:nonzero;"/>
        <path d="M46.512,13.704L39.527,13.704C38.418,13.704 37.66,14.513 37.66,14.513L34.964,17.385C34.206,18.195 34.206,19.105 34.206,19.105L34.206,20.017L39.085,20.017C40.193,20.017 40.193,21.126 40.193,21.126L40.193,33.804C41.522,34.014 42.619,34.248 43.52,34.486L43.52,21.133C43.52,20.024 44.628,20.024 44.628,20.024L47.623,20.024L47.623,14.811C47.623,13.704 46.512,13.704 46.512,13.704Z" style="fill:white;fill-rule:nonzero;"/>
        <path d="M11.566,21.133L11.566,34.469C12.468,34.231 13.565,33.999 14.893,33.791L14.893,29.643L14.893,21.126C14.893,21.126 14.893,20.017 16.002,20.017L20.881,20.017L20.881,19.105C20.881,19.105 20.881,18.195 20.123,17.385L17.427,14.513C17.427,14.513 16.668,13.704 15.56,13.704L8.574,13.704C8.574,13.704 7.464,13.704 7.464,14.811L7.464,20.024L10.459,20.024C10.459,20.024 11.566,20.024 11.566,21.133Z" style="fill:white;fill-rule:nonzero;"/>
        <path d="M40.193,45.871L40.193,53.312C40.193,53.312 40.026,55.42 41.799,55.42C43.575,55.42 43.518,53.312 43.518,53.312L43.518,46.624C42.715,46.381 41.632,46.116 40.193,45.871Z" style="fill:white;fill-rule:nonzero;"/>
        <path d="M25.219,45.033C24.249,45.051 23.329,45.078 22.469,45.117C22.787,47.631 23.491,54.346 23.491,55.698C23.491,57.195 23.002,58.571 22.937,58.971C22.826,59.636 22.659,60.814 23.379,60.928C24.1,61.043 24.6,60.412 24.766,60.024C24.932,59.636 25.487,58.472 25.709,56.697C25.809,55.895 25.33,47.827 25.33,47.217C25.33,47.008 25.283,46.132 25.219,45.033Z" style="fill:white;fill-rule:nonzero;"/>
        <path d="M31.97,55.698C31.97,54.35 32.669,47.676 32.987,45.142C32.127,45.099 31.215,45.064 30.24,45.042C30.176,46.137 30.129,47.008 30.129,47.217C30.129,47.827 29.651,55.895 29.752,56.697C29.973,58.472 30.529,59.636 30.694,60.024C30.861,60.412 31.36,61.043 32.082,60.928C32.802,60.814 32.634,59.636 32.523,58.971C32.458,58.571 31.97,57.195 31.97,55.698Z" style="fill:white;fill-rule:nonzero;"/>
        <path d="M30.075,40.492L28.349,39.827L29.015,41.553L26.029,41.553L26.693,39.825L24.967,40.492L24.967,37.504L26.693,38.171L26.027,36.444L29.015,36.444L28.349,38.171L30.075,37.504L30.075,40.492ZM27.543,35.551C11.512,35.551 8.353,38.377 8.353,38.377L8.636,45.38C8.636,45.38 11.53,42.506 27.543,42.506C43.556,42.506 46.55,45.38 46.55,45.38L46.827,38.377C46.827,38.377 43.575,35.551 27.543,35.551Z" style="fill:rgb(251,176,64);fill-rule:nonzero;"/>
        <path d="M167.072,14.337L167.573,14.383C170.905,14.685 171.121,15.144 171.306,16.575C171.542,17.877 171.634,19.843 171.634,23.586L171.634,27.186C171.634,32.965 170.67,39.598 163.158,39.598C157.471,39.598 154.587,35.962 154.587,28.79L154.587,18.557C154.587,14.549 154.841,14.536 157.953,14.384L158.477,14.359L158.477,12.763L145.896,12.763L145.896,14.332L146.393,14.382C149.676,14.712 149.739,14.718 149.739,18.557L149.739,29.874C149.739,34.97 151.141,38.323 154.146,40.423C155.992,41.747 158.664,42.476 161.67,42.476C165.232,42.476 168.318,41.39 170.362,39.414C172.869,36.948 173.938,33.525 173.938,27.966L173.938,23.63C173.938,19.868 174.074,17.923 174.175,16.788C174.326,15.162 174.771,14.679 177.618,14.382L178.112,14.33L178.112,12.763L167.072,12.763L167.072,14.337Z" style="fill:rgb(139,31,3);fill-rule:nonzero;"/>
        <path d="M201.119,14.35L201.634,14.384C204.911,14.597 205.396,15.079 205.588,16.887C205.753,18.316 205.823,20.372 205.823,23.76L205.823,34.278L186.164,12.763L178.837,12.763L178.837,14.34L179.341,14.383C181.699,14.586 182.098,14.907 183.11,15.978C183.84,16.785 183.977,17.042 183.977,20.336L183.977,30.307C183.977,34.203 183.809,36.241 183.708,37.459L183.691,37.667C183.497,39.673 182.903,40.122 180.162,40.337L179.653,40.377L179.653,41.957L190.889,41.957L190.889,40.379L190.383,40.337C187.299,40.084 186.764,39.709 186.563,37.653C186.372,36.095 186.279,33.692 186.279,30.307L186.279,19.809L206.397,42.293L206.562,42.476L208.127,42.476L208.127,23.804C208.127,20.012 208.218,18.207 208.317,16.828C208.474,14.981 208.989,14.592 211.557,14.383L212.064,14.342L212.064,12.763L201.119,12.763L201.119,14.35Z" style="fill:rgb(139,31,3);fill-rule:nonzero;"/>
        <path d="M212.885,14.348L213.399,14.383C216.879,14.625 217.014,14.768 217.014,18.212L217.014,36.506C217.014,39.951 216.879,40.094 213.399,40.337L212.885,40.372L212.885,41.957L226.042,41.957L226.042,40.372L225.528,40.337C221.998,40.094 221.861,39.951 221.861,36.506L221.861,18.212C221.861,14.768 221.998,14.625 225.527,14.384L226.042,14.349L226.042,12.763L212.885,12.763L212.885,14.348Z" style="fill:rgb(139,31,3);fill-rule:nonzero;"/>
        <path d="M258.98,12.763L247.987,12.763L247.987,14.32L248.47,14.381C249.878,14.558 251.275,14.765 251.528,15.177C251.707,15.468 251.47,16.239 251.186,17.032C249.153,22.819 245.763,30.82 243.911,35.032C240.674,27.452 237.361,19.384 236.234,16.33C236.065,15.875 235.857,15.243 235.995,15.022C236.232,14.637 237.865,14.458 238.562,14.381L239.053,14.328L239.053,12.763L226.86,12.763L226.86,14.344L227.37,14.383C229.917,14.577 230.299,14.742 231.8,18.381C234.882,25.708 238.25,33.964 241.541,42.257L241.679,42.605L243.198,42.605L243.335,42.256C247.043,32.886 252.05,21.715 253.458,18.698C255.168,14.884 255.603,14.697 258.488,14.381L258.98,14.328L258.98,12.763Z" style="fill:rgb(139,31,3);fill-rule:nonzero;"/>
        <path d="M281.401,34.691C280.719,36.34 279.981,37.692 279.339,38.478C278.474,39.441 277.813,39.943 273.316,39.943C271.104,39.943 269.506,39.943 268.726,39.387C268.21,39.038 267.913,38.441 267.913,36.421L267.913,27.996L272.212,27.996C276.219,27.996 276.292,28.398 276.76,31.013L276.842,31.466L278.427,31.466L278.427,22.515L276.848,22.515L276.762,22.962C276.273,25.486 276.209,25.811 272.115,25.811L267.913,25.811L267.913,15.567C267.913,15.411 267.913,14.937 267.96,14.852C268.003,14.823 268.17,14.774 268.801,14.774L272.02,14.774C275.762,14.774 276.927,15.017 277.696,15.965C278.288,16.665 278.726,17.679 279.118,19.255L279.244,19.761L280.923,19.44L280.875,18.94C280.735,17.504 280.542,14.75 280.542,13.314L280.542,12.763L259.222,12.763L259.222,14.333L259.72,14.382C263.002,14.712 263.065,14.718 263.065,18.473L263.065,36.506C263.065,39.908 262.914,40.051 259.013,40.337L258.501,40.374L258.501,41.957L281.358,41.957L281.478,41.567C281.964,39.98 282.84,36.556 283.123,35.14L283.231,34.596L281.574,34.275L281.401,34.691Z" style="fill:rgb(139,31,3);fill-rule:nonzero;"/>
        <path d="M292.401,16.477C292.401,15.062 292.563,14.97 292.633,14.93C292.782,14.853 293.587,14.686 295.021,14.686C298.916,14.686 301.241,17.057 301.241,21.029C301.241,23.422 300.473,25.099 298.833,26.301C297.725,27.08 296.392,27.37 293.917,27.37L292.401,27.37L292.401,16.477ZM308.529,38.643C307.298,37.337 305.976,35.75 304.488,33.791C303.167,32.043 301.418,29.544 300.473,27.976C304.434,26.267 306.522,23.635 306.522,20.336C306.522,17.776 305.39,15.654 303.336,14.364C301.542,13.227 299.258,12.763 295.454,12.763L283.667,12.763L283.667,14.34L284.171,14.383C287.427,14.662 287.554,14.673 287.554,18.038L287.554,36.506C287.554,39.951 287.421,40.094 283.986,40.337L283.473,40.373L283.473,41.957L296.436,41.957L296.436,40.373L295.923,40.337C292.565,40.097 292.401,39.918 292.401,36.506L292.401,29.255L293.052,29.255C295.284,29.255 295.871,29.776 296.683,30.973C297.248,31.769 297.837,32.641 298.444,33.537C299.499,35.095 300.588,36.706 301.69,38.144C303.904,41.02 306.02,42.047 310.038,42.213C310.452,42.26 310.901,42.26 311.297,42.26L311.747,42.26L312.044,40.818L311.522,40.695C310.565,40.47 309.874,40.107 308.529,38.643Z" style="fill:rgb(139,31,3);fill-rule:nonzero;"/>
        <path d="M323.031,25.129L322.687,24.957C318.614,22.91 316.797,21.52 316.797,18.689C316.797,15.916 318.728,14.125 321.717,14.125C324.762,14.125 326.716,15.834 327.868,19.505L328.018,19.982L329.647,19.641L329.448,18.419C329.118,16.403 328.879,14.946 328.75,13.564L328.713,13.169L328.327,13.078C328.104,13.027 327.867,12.965 327.612,12.9C326.391,12.586 324.719,12.155 322.392,12.155C315.789,12.155 312.333,16.227 312.333,20.248C312.333,25.089 316.956,27.485 319.718,28.918L320.405,29.277C323.942,31.155 326.259,32.601 326.259,35.467C326.259,38.549 324.208,40.465 320.907,40.465C315.023,40.465 313.396,34.345 313.23,33.648L313.089,33.054L311.487,33.61L311.519,34.034C311.602,35.124 312.311,39.884 312.728,40.736L312.815,40.914L312.995,40.996C313.544,41.246 314.334,41.522 315.585,41.899L315.795,41.95C316.844,42.21 318.279,42.564 320.185,42.564C326.33,42.564 330.963,38.916 330.963,34.078C330.963,29.072 326.749,26.977 323.031,25.129Z" style="fill:rgb(139,31,3);fill-rule:nonzero;"/>
        <path d="M332.214,14.348L332.728,14.383C336.209,14.625 336.344,14.768 336.344,18.212L336.344,36.506C336.344,39.951 336.209,40.094 332.728,40.337L332.214,40.372L332.214,41.957L345.371,41.957L345.371,40.372L344.857,40.337C341.328,40.094 341.191,39.951 341.191,36.506L341.191,18.212C341.191,14.768 341.328,14.625 344.856,14.384L345.371,14.349L345.371,12.763L332.214,12.763L332.214,14.348Z" style="fill:rgb(139,31,3);fill-rule:nonzero;"/>
        <path d="M391.709,12.763L391.709,14.334L392.208,14.382C393.062,14.466 394.84,14.64 395.05,15.019C395.2,15.29 394.713,16.258 394.555,16.573C393.292,19.051 390.644,23.524 388.904,26.419L388.385,25.551C386.571,22.519 384.515,19.083 382.657,15.727C382.351,15.195 382.341,15.046 382.35,15.007C382.388,14.932 382.675,14.664 384.75,14.38L385.227,14.315L385.227,12.763L373.613,12.763C373.609,12.58 373.606,12.395 373.606,12.229L373.606,11.678L372.272,11.678L372.108,11.867C371.501,12.561 371.168,12.763 370.125,12.763L351.155,12.763C349.899,12.763 349.444,12.651 349.041,11.953L348.881,11.678L347.559,11.678L347.535,12.204C347.417,14.805 347.208,17.493 346.961,19.577L346.889,20.193L348.604,20.193L348.712,19.782C349.162,18.08 349.574,16.959 350.056,16.136C350.568,15.21 351.326,14.774 356.054,14.774L358.047,14.774L358.047,36.593C358.047,39.623 357.94,40.131 354.151,40.336L353.628,40.364L353.628,41.957L367.458,41.957L367.458,40.363L366.935,40.336C362.897,40.128 362.897,39.588 362.897,36.593L362.897,14.774L365.611,14.774C369.72,14.774 370.435,15.204 370.986,16.095C371.345,16.741 371.823,17.739 372.328,19.735L372.447,20.209L374.144,19.989L374.081,19.447C373.895,17.886 373.746,16.006 373.667,14.372L373.94,14.384C376.435,14.5 376.556,14.697 378.586,17.982C380.958,21.797 382.855,24.994 384.39,27.763C385.125,29.051 385.229,29.435 385.229,30.177L385.229,36.464C385.229,39.949 385.088,40.094 381.466,40.336L380.952,40.371L380.952,41.957L394.542,41.957L394.542,40.369L394.025,40.336C390.223,40.093 390.076,39.949 390.076,36.464L390.076,30.132C390.076,28.993 390.111,28.571 390.865,27.288C393.072,23.474 394.777,20.694 397.458,16.933L397.601,16.736C398.842,15.034 399.066,14.728 401.975,14.381L402.461,14.323L402.461,12.763L391.709,12.763Z" style="fill:rgb(139,31,3);fill-rule:nonzero;"/>
        <path d="M153.984,68.369C153.719,68.458 153.508,68.487 153.149,68.487C151.717,68.487 150.828,67.307 150.828,65.406C150.828,61.048 153.08,58.89 154.186,58.522C154.499,58.401 154.782,58.353 155.198,58.353L155.231,58.353C156.515,58.353 157.33,59.525 157.357,61.409C157.392,64.964 155.647,67.876 153.984,68.369ZM160.455,61.269C160.455,58.59 158.79,56.925 156.075,56.925C155.24,56.925 153.97,57.26 152.848,57.775C150.285,58.882 147.699,61.714 147.699,65.543C147.699,68.316 149.311,69.971 152.011,69.971C153.523,69.971 155.313,69.329 156.927,68.207C159.07,66.675 160.455,63.952 160.455,61.269Z" style="fill:rgb(139,31,3);fill-rule:nonzero;"/>
        <path d="M171.556,49.224C170.151,49.224 168.181,50.177 166.771,51.535C165.487,52.71 164.563,54.583 163.87,57.417L162.119,57.417L160.962,58.178L161.092,58.846L163.556,58.846C163.205,60.514 162.89,62.044 162.488,64.001L161.724,67.72C160.904,71.699 160.202,73.926 159.574,74.531C159.27,74.834 158.766,75.037 158.319,75.037C157.775,75.037 156.781,74.756 156.363,74.405C156.099,74.186 155.813,74.172 155.476,74.374C155.003,74.657 154.494,75.188 154.494,75.684C154.494,76.522 155.67,77.041 156.759,77.041C157.914,77.041 159.325,76.404 160.536,75.336C162.714,73.386 163.558,71.688 164.64,67.08C165.49,63.63 165.845,61.862 166.434,58.933L166.445,58.878L169.418,58.616L170.842,57.417L166.775,57.417C167.717,52.834 168.612,50.955 169.835,50.955C170.452,50.955 171.035,51.241 171.56,51.798C171.843,52.118 172.288,52.183 172.685,51.943C172.928,51.788 173.559,51.253 173.558,50.663C173.577,50.42 173.463,50.153 173.24,49.912C172.932,49.579 172.328,49.224 171.556,49.224Z" style="fill:rgb(139,31,3);fill-rule:nonzero;"/>
        <path d="M188.758,63.301C187.706,63.301 186.746,63.173 186.18,63.034L186.18,54.25C186.18,53.215 186.27,52.717 186.516,52.56C186.639,52.46 187.297,52.254 188.543,52.254C192.388,52.254 194.592,54.203 194.592,57.603C194.592,62.746 190.512,63.301 188.758,63.301ZM196.219,52.385C194.683,51.424 192.3,50.937 189.135,50.937L178.929,50.937L178.929,51.987L179.25,52.009C182.077,52.208 182.187,52.325 182.187,55.155L182.187,70.001C182.187,72.769 182.04,72.917 179.036,73.151L178.718,73.175L178.718,74.259L189.904,74.259L189.904,73.173L189.584,73.151C186.339,72.917 186.18,72.773 186.18,70.072L186.18,64.355L188.864,64.963C189.268,65.036 190.062,65.036 190.611,64.966C194.69,64.536 199.049,62.366 199.049,57.569C199.049,55.351 198.071,53.559 196.219,52.385Z" style="fill:rgb(139,31,3);fill-rule:nonzero;"/>
        <path d="M210.808,58.235C208.854,58.235 207.094,60.111 206.157,61.331L206.157,57.976L205.69,58.152C203.736,58.892 202.088,59.315 200.18,59.566L199.88,59.606L199.88,60.527L200.184,60.564C202.378,60.826 202.42,60.872 202.42,62.981L202.42,70.631C202.42,72.811 202.284,72.952 199.984,73.151L199.669,73.178L199.669,74.259L209.544,74.259L209.544,73.172L209.222,73.151C206.157,72.949 206.157,72.774 206.157,70.631L206.157,63.631C207.099,62.014 208.062,61.16 208.945,61.16C209.524,61.16 209.913,61.328 210.546,61.851C210.867,62.114 211.307,62.166 211.931,61.928C212.835,61.49 213.354,60.856 213.354,60.187C213.354,59.264 212.308,58.235 210.808,58.235Z" style="fill:rgb(139,31,3);fill-rule:nonzero;"/>
        <path d="M218.468,54.802C219.615,54.802 220.547,53.99 220.547,52.992C220.547,51.976 219.652,51.181 218.468,51.181C217.344,51.181 216.43,52.008 216.43,53.026C216.43,53.972 217.382,54.802 218.468,54.802Z" style="fill:rgb(139,31,3);fill-rule:nonzero;"/>
        <path d="M220.547,70.631L220.547,58.013L220.082,58.187C218.475,58.789 216.647,59.242 214.649,59.533L214.354,59.576L214.354,60.548L214.641,60.597C216.75,60.957 216.811,61.024 216.811,62.981L216.811,70.631C216.811,72.811 216.669,72.952 214.291,73.151L213.974,73.177L213.974,74.259L223.428,74.259L223.428,73.176L223.111,73.151C220.667,72.954 220.547,72.836 220.547,70.631Z" style="fill:rgb(139,31,3);fill-rule:nonzero;"/>
        <path d="M242.347,70.595L242.347,63.679C242.347,60.27 240.272,58.235 236.796,58.235C235.534,58.235 234.624,58.651 233.375,59.287C232.465,59.769 231.596,60.277 230.918,60.689L230.918,57.973L230.45,58.153C228.828,58.777 227.114,59.227 225.056,59.568L224.768,59.616L224.768,60.538L225.043,60.594C227.099,61.019 227.179,61.035 227.179,63.016L227.179,70.595C227.179,72.809 227.024,72.953 224.41,73.151L224.091,73.175L224.091,74.259L233.584,74.259L233.584,73.179L233.27,73.151C231.05,72.956 230.918,72.815 230.918,70.631L230.918,62.214C232.027,61.433 233.666,60.637 235.102,60.637C237.496,60.637 238.611,61.825 238.611,64.377L238.611,70.247C238.611,72.862 238.387,72.955 235.964,73.151L235.647,73.176L235.647,74.259L244.804,74.259L244.804,73.18L244.492,73.151C242.427,72.96 242.347,72.864 242.347,70.595Z" style="fill:rgb(139,31,3);fill-rule:nonzero;"/>
        <path d="M259.012,70.086C257.133,71.633 255.838,71.927 254.107,71.927C251.736,71.927 247.974,70.2 247.974,65.566C247.974,62.259 249.807,60.286 252.878,60.286C254.412,60.286 255.736,60.719 256.821,61.581C257.303,61.943 257.506,62.07 257.872,62.07C258.446,62.07 259.362,61.351 259.362,60.5C259.362,60.032 259.131,59.657 258.584,59.244C257.888,58.742 256.469,58.235 254.826,58.235C253.269,58.235 250.762,58.846 248.671,60.211C245.786,62.074 244.323,64.464 244.323,67.312C244.323,70.882 247.277,74.677 252.752,74.677C255.056,74.677 257.7,73.29 259.821,70.967L260.031,70.739L259.269,69.874L259.012,70.086Z" style="fill:rgb(139,31,3);fill-rule:nonzero;"/>
        <path d="M271.958,63.439C269.609,63.506 267.394,63.51 265.071,63.51C265.682,60.987 267.482,59.834 268.965,59.834L269.005,59.834C270.053,59.834 270.928,60.162 271.536,60.784C272.125,61.386 272.45,62.26 272.427,63.19C272.427,63.295 272.427,63.438 271.958,63.439ZM276.418,63.4C276.418,60.957 273.861,58.235 270.147,58.235C268.101,58.235 265.787,59.208 263.951,60.839C262.103,62.511 261.126,64.653 261.126,67.033C261.126,70.715 263.738,74.677 269.471,74.677C270.723,74.677 273.743,73.922 276.209,71.066L276.416,70.827L275.643,70.029L275.399,70.219C273.974,71.33 272.493,71.893 270.994,71.893C269.287,71.893 267.679,71.254 266.582,70.14C265.411,68.95 264.805,67.278 264.779,65.167C269.758,65.024 274.582,64.721 275.256,64.61C275.993,64.458 276.418,64.212 276.418,63.4Z" style="fill:rgb(139,31,3);fill-rule:nonzero;"/>
        <path d="M303.697,68.532C303.262,69.487 302.588,70.799 301.86,71.61C301.001,72.48 300.27,72.834 296.435,72.834C294.454,72.834 293.021,72.834 292.296,72.363C291.811,72.063 291.531,71.563 291.531,69.897L291.531,63.011L295.46,63.011C299.118,63.011 299.193,63.396 299.612,65.527L299.667,65.806L300.802,65.806L300.802,58.795L299.67,58.795L299.613,59.069C299.185,61.085 299.108,61.448 295.375,61.448L291.531,61.448L291.531,53.097C291.531,52.358 291.531,52.358 292.457,52.358L295.291,52.358C298.65,52.358 299.703,52.564 300.415,53.365C300.949,53.943 301.341,54.771 301.686,56.051L301.768,56.356L302.992,56.139L302.958,55.819C302.833,54.65 302.662,52.422 302.662,51.281L302.662,50.937L284.152,50.937L284.152,52.012L284.465,52.041C287.365,52.308 287.539,52.324 287.539,55.436L287.539,69.966C287.539,72.698 287.453,72.911 283.837,73.151L283.515,73.172L283.515,74.259L303.411,74.259L303.49,74.025C303.907,72.797 304.679,70.042 304.94,68.854L305.016,68.504L303.807,68.288L303.697,68.532Z" style="fill:rgb(139,31,3);fill-rule:nonzero;"/>
        <path d="M318.862,71.107C317.985,71.652 316.57,72.172 315.224,72.172C312.473,72.172 309.689,70.095 309.689,66.126C309.689,61.13 312.958,59.798 314.888,59.798C316.593,59.798 318.034,60.401 318.862,61.456L318.862,71.107ZM322.595,70.316L322.595,48.268L322.152,48.401C320.724,48.827 318.111,49.397 316.079,49.61L315.77,49.643L315.77,50.59L316.094,50.61C318.862,50.778 318.862,50.941 318.862,52.922L318.862,58.482C317.914,58.263 316.979,58.235 316.326,58.235C310.473,58.235 305.529,62.279 305.529,67.067C305.529,72.258 310.205,74.677 313.365,74.677C314.187,74.677 315.331,74.311 316.866,73.558L318.862,72.552L318.862,74.81L319.315,74.659C320.779,74.172 322.795,73.741 325.307,73.38L325.603,73.337L325.603,72.383L324.026,72.211C322.675,72.059 322.595,71.953 322.595,70.316Z" style="fill:rgb(139,31,3);fill-rule:nonzero;"/>
        <path d="M352.016,59.726L352.016,58.655L344.298,58.655L344.298,59.719L344.595,59.76C345.812,59.93 346.759,60.086 346.975,60.417C347.117,60.635 347.029,61.087 346.855,61.695C346.153,64.068 345.269,66.481 344.415,68.815L344.14,69.566C342.263,65.648 340.706,62.323 339.287,59.037L339.197,58.829L338.15,58.829L338.061,59.04C336.514,62.708 335.033,66.095 333.6,69.369C332.311,66.339 331.303,63.814 330.447,61.464C330.268,60.99 330.104,60.513 330.215,60.327C330.387,60.041 331.417,59.885 332.371,59.761L332.67,59.722L332.67,58.655L323.726,58.655L323.726,59.729L324.035,59.762C325.844,59.955 325.992,60.069 326.673,61.784C328.416,66.06 330.107,70.246 331.664,74.452L331.747,74.677L332.895,74.677L332.984,74.465C334.211,71.526 335.427,68.865 336.715,66.048C337.002,65.42 337.292,64.787 337.583,64.145C338.066,65.151 338.544,66.131 339.014,67.095C340.255,69.639 341.426,72.041 342.467,74.468L342.556,74.677L343.692,74.677L344.707,72.139C346.294,68.166 347.936,64.056 348.851,62.074C349.635,60.346 349.798,59.986 351.711,59.761L352.016,59.726Z" style="fill:rgb(139,31,3);fill-rule:nonzero;"/>
        <path d="M360.893,71.201C360.061,71.856 358.854,72.208 358.1,72.208C356.959,72.208 355.354,71.437 355.354,69.721C355.354,68.699 355.952,68.098 357.642,67.422C357.982,67.281 358.463,67.094 358.976,66.894C359.631,66.639 360.351,66.359 360.893,66.13L360.893,71.201ZM366.976,71.771C366.632,71.991 366.225,72.102 365.765,72.102C365.016,72.102 364.586,71.502 364.586,70.456L364.586,63.783C364.586,61.575 363.987,60.197 362.568,59.165C361.671,58.574 360.488,58.242 359.185,58.241C357.079,58.631 354.286,59.911 352.975,60.694C352.291,61.1 351.622,61.551 351.622,62.212C351.622,63.138 352.69,63.883 353.574,63.883C354.281,63.883 354.707,63.562 354.913,62.885C355.292,61.776 355.655,61.11 356.099,60.713C356.468,60.348 357.029,60.148 357.678,60.148C359.751,60.148 360.893,61.526 360.893,64.029L360.893,64.705C359.738,65.356 357.046,66.164 354.792,66.805C352.423,67.496 351.367,68.59 351.367,70.352C351.367,72.441 353.461,74.677 356.579,74.677C357.461,74.677 359.146,73.723 361.096,72.569C361.292,73.064 361.553,73.54 361.976,73.89C362.491,74.353 363.44,74.677 364.283,74.677L364.374,74.677L367.873,72.689L367.294,71.568L366.976,71.771Z" style="fill:rgb(139,31,3);fill-rule:nonzero;"/>
        <path d="M381.856,60.187C381.856,59.264 380.809,58.235 379.308,58.235C377.359,58.235 375.598,60.11 374.659,61.329L374.659,57.976L374.192,58.152C372.239,58.892 370.591,59.315 368.684,59.566L368.384,59.606L368.384,60.527L368.688,60.564C370.879,60.826 370.921,60.871 370.921,62.981L370.921,70.631C370.921,72.811 370.785,72.952 368.484,73.151L368.168,73.178L368.168,74.259L378.045,74.259L378.045,73.172L377.723,73.151C374.659,72.949 374.659,72.774 374.659,70.631L374.659,63.631C375.601,62.014 376.564,61.16 377.446,61.16C378.026,61.16 378.415,61.328 379.049,61.852C379.371,62.114 379.81,62.165 380.433,61.928C381.337,61.49 381.856,60.855 381.856,60.187Z" style="fill:rgb(139,31,3);fill-rule:nonzero;"/>
        <path d="M393.737,71.107C392.861,71.652 391.446,72.172 390.102,72.172C387.35,72.172 384.564,70.095 384.564,66.126C384.564,61.13 387.833,59.798 389.763,59.798C391.468,59.798 392.909,60.401 393.737,61.456L393.737,71.107ZM398.904,72.211C397.553,72.059 397.473,71.953 397.473,70.316L397.473,48.268L397.03,48.401C395.6,48.827 392.985,49.396 390.955,49.61L390.646,49.643L390.646,50.59L390.969,50.61C393.737,50.778 393.737,50.941 393.737,52.922L393.737,58.482C392.79,58.263 391.856,58.235 391.203,58.235C385.348,58.235 380.402,62.279 380.402,67.067C380.402,72.258 385.079,74.677 388.239,74.677C389.063,74.677 390.207,74.311 391.738,73.558L393.737,72.552L393.737,74.81L394.191,74.659C395.655,74.172 397.671,73.741 400.185,73.38L400.481,73.337L400.481,72.383L398.904,72.211Z" style="fill:rgb(139,31,3);fill-rule:nonzero;"/>
        <path d="M147.758,85.604L148.14,85.632C154.279,86.097 154.775,86.67 154.775,93.283L154.775,126.969C154.775,133.586 154.279,134.158 148.141,134.619L147.758,134.648L147.758,136.403L169.064,136.403L169.064,134.648L168.681,134.619C162.47,134.158 161.968,133.587 161.968,126.969L161.968,93.283C161.968,86.669 162.47,86.096 168.681,85.632L169.064,85.604L169.064,83.849L147.758,83.849L147.758,85.604Z" style="fill:rgb(139,31,3);fill-rule:nonzero;"/>
        <path d="M190.807,106.565L190.224,106.25C183.995,102.857 179.912,100.182 179.912,94.164C179.912,90.009 182.24,85.157 188.802,85.157C194.229,85.157 197.707,88.436 199.747,95.476L199.855,95.85L201.673,95.439L201.485,94.204C200.887,90.286 200.456,87.456 200.229,84.787L200.204,84.494L199.919,84.422C199.542,84.326 199.141,84.214 198.711,84.092C196.659,83.519 193.85,82.733 189.946,82.733C179.067,82.733 173.375,89.929 173.375,97.038C173.375,105.578 180.755,109.721 185.639,112.462C186.048,112.692 186.438,112.91 186.802,113.12C192.986,116.683 197.039,119.438 197.039,125.055C197.039,131.103 193.351,134.859 187.415,134.859C179.532,134.859 175.19,127.852 173.868,121.852L173.765,121.386L171.968,122.061L171.99,122.368C172.141,124.521 173.364,133.098 173.984,134.483L174.045,134.619L174.18,134.686C175.104,135.137 176.429,135.636 178.498,136.31L178.85,136.404C180.604,136.874 183.005,137.519 186.192,137.519C197.749,137.519 203.985,129.78 203.985,122.498C203.985,113.661 196.983,109.891 190.807,106.565Z" style="fill:rgb(139,31,3);fill-rule:nonzero;"/>
        <path d="M244.273,124.29L244.395,123.863L242.451,123.455L242.337,123.812C241.307,127.058 240.026,129.57 238.424,131.487C236.842,133.314 234.539,133.901 228.944,133.901C225.253,133.901 222.676,133.736 221.25,132.927C220.071,132.183 219.73,130.668 219.73,126.172L219.73,93.204C219.73,86.334 220.245,86.093 225.796,85.632L226.175,85.601L226.175,83.849L206.012,83.849L206.012,85.602L206.393,85.632C212.308,86.098 212.539,86.381 212.539,93.204L212.539,126.812C212.539,133.574 212.042,134.158 205.903,134.619L205.521,134.648L205.521,136.403L241.33,136.403L241.417,136.106C241.873,134.545 242.535,131.656 243.119,129.108C243.583,127.082 244.022,125.168 244.273,124.29Z" style="fill:rgb(139,31,3);fill-rule:nonzero;"/>
        <path d="M273.887,113.068L259.808,113.068L261.032,109.824C263.014,104.566 265.059,99.136 267.186,93.847L273.887,113.068ZM286.444,126.584C280.869,111.618 275.569,96.85 270.618,83.006L270.477,82.615L268.607,83.298L251.322,126.418C248.535,133.474 247.414,134.176 242.933,134.62L242.561,134.656L242.561,136.403L259.625,136.403L259.625,134.654L259.249,134.619C256.325,134.357 254.515,134.023 253.909,133.095C253.344,132.23 253.704,130.65 254.466,128.378L254.935,126.968C255.982,123.815 257.167,120.248 258.685,116.047L274.835,116.047L276,119.219C277.762,124.015 279.155,127.803 279.951,130.525C280.357,131.813 280.394,132.616 280.071,133.129C279.571,133.92 278.036,134.276 275.553,134.622L275.198,134.672L275.198,136.403L295.117,136.403L295.117,134.656L294.744,134.62C290.063,134.163 289.024,133.527 286.444,126.584Z" style="fill:rgb(139,31,3);fill-rule:nonzero;"/>
        <path d="M363.485,91.529C363.485,87.582 363.896,87.075 364.432,86.81C365.236,86.529 366.829,86.194 369.845,86.194C375.386,86.194 379.875,87.142 383.19,89.015C389.838,92.639 393.5,99.854 393.5,109.329C393.5,121.131 387.67,133.742 371.313,133.742C366.237,133.742 363.485,132.587 363.485,126.492L363.485,91.529ZM394.852,90.672C390.079,86.081 382.62,83.849 372.049,83.849L350.026,83.849L349.525,83.849L332.471,83.849L332.471,85.605L332.855,85.632C338.405,86.027 339.685,86.94 340.061,90.775C340.346,93.436 340.468,97.242 340.468,103.501L340.468,124.353L306.441,83.996L306.317,83.849L294.617,83.849L294.617,85.596L294.991,85.632C299.168,86.026 299.936,86.699 301.726,88.76C303.119,90.422 303.342,91.131 303.342,97.197L303.342,115.555C303.342,122.82 303.055,126.587 302.884,128.838L302.859,129.167C302.476,133.429 300.982,134.232 296.38,134.619L296.002,134.652L296.002,136.403L314.043,136.403L314.043,134.653L313.667,134.619C308.45,134.156 307.085,133.467 306.698,129.157C306.371,126.277 306.211,121.827 306.211,115.555L306.211,94.714L341.298,137.212L341.422,137.362L343.335,137.362L343.335,103.584C343.335,96.591 343.492,93.249 343.66,90.682C343.968,86.762 345.354,86.015 349.65,85.632L350.026,85.598L350.026,85.564C355.682,86.016 356.215,86.307 356.215,93.283L356.215,126.969C356.215,133.587 355.695,134.159 349.255,134.619L348.872,134.647L348.872,136.403L367.645,136.403C377.762,136.403 386.171,134.055 391.963,129.612C398.421,124.68 401.834,117.252 401.834,108.132C401.834,101.004 399.419,94.965 394.852,90.672Z" style="fill:rgb(139,31,3);fill-rule:nonzero;"/>
    </g>
</svg>
